<?xml version="1.0" encoding="UTF-8"?>
<!DOCTYPE svg PUBLIC "-//W3C//DTD SVG 1.1//EN" "http://www.w3.org/Graphics/SVG/1.1/DTD/svg11.dtd">
<svg xmlns="http://www.w3.org/2000/svg" version="1.1" width="500px" height="500px" style="shape-rendering:geometricPrecision; text-rendering:geometricPrecision; image-rendering:optimizeQuality; fill-rule:evenodd; clip-rule:evenodd" xmlns:xlink="http://www.w3.org/1999/xlink">
<g><path style="opacity:1" fill="#fefefe" d="M -0.5,-0.5 C 166.167,-0.5 332.833,-0.5 499.5,-0.5C 499.5,166.167 499.5,332.833 499.5,499.5C 332.833,499.5 166.167,499.5 -0.5,499.5C -0.5,332.833 -0.5,166.167 -0.5,-0.5 Z"/></g>
<g><path style="opacity:1" fill="#0a0a0a" d="M 371.5,271.5 C 346.005,272.498 320.339,272.831 294.5,272.5C 292.592,268.92 289.926,265.92 286.5,263.5C 278.948,269.019 270.614,271.686 261.5,271.5C 260.365,269.201 259.032,267.034 257.5,265C 251.804,264.17 246.137,264.337 240.5,265.5C 239.696,269.808 237.196,272.142 233,272.5C 225.535,270.601 218.535,267.601 212,263.5C 209.014,265.32 206.514,267.653 204.5,270.5C 191.723,271.815 178.723,272.481 165.5,272.5C 152.662,272.5 139.996,272.167 127.5,271.5C 137.845,270.944 148.178,270.277 158.5,269.5C 163.229,256.65 172.562,250.817 186.5,252C 189.017,249.651 191.35,247.151 193.5,244.5C 192.807,243.482 192.141,242.482 191.5,241.5C 191.328,240.508 191.662,239.842 192.5,239.5C 192.856,240.87 193.69,241.87 195,242.5C 196.162,241.813 197.328,241.647 198.5,242C 194.833,245.667 191.167,249.333 187.5,253C 188.416,253.374 189.25,253.874 190,254.5C 195.167,249.333 200.333,244.167 205.5,239C 204.892,238.13 204.059,237.63 203,237.5C 200.27,238.861 197.437,239.361 194.5,239C 191.581,233.904 189.247,228.57 187.5,223C 189.699,221.303 192.032,219.803 194.5,218.5C 195.665,211.189 195.831,203.856 195,196.5C 192.586,194.709 190.086,193.043 187.5,191.5C 189.38,185.409 192.047,179.743 195.5,174.5C 197.783,175.321 200.116,175.988 202.5,176.5C 203.932,176.267 204.432,175.6 204,174.5C 199.5,170 195,165.5 190.5,161C 189.668,160.312 189.002,160.479 188.5,161.5C 191.984,165.485 195.651,169.318 199.5,173C 197.257,172.681 195.09,172.848 193,173.5C 189.669,179.161 187.169,185.161 185.5,191.5C 185.608,192.442 185.941,193.275 186.5,194C 188.746,195.039 190.913,196.206 193,197.5C 193.5,203.825 193.666,210.158 193.5,216.5C 192.833,216.5 192.167,216.5 191.5,216.5C 192.618,210.916 192.785,205.249 192,199.5C 188.866,197.688 186.032,195.521 183.5,193C 185.195,184.612 188.528,176.945 193.5,170C 191.167,167.667 188.833,165.333 186.5,163C 167.383,162.895 157.883,153.395 158,134.5C 163.167,139.667 168.333,144.833 173.5,150C 178.957,150.009 184.291,149.175 189.5,147.5C 191.175,142.291 192.009,136.957 192,131.5C 186.833,126.333 181.667,121.167 176.5,116C 195.845,115.461 205.345,124.961 205,144.5C 207.333,146.833 209.667,149.167 212,151.5C 219.509,145.668 227.843,142.668 237,142.5C 238.039,144.746 239.206,146.913 240.5,149C 246.528,149.83 252.528,149.664 258.5,148.5C 259.832,145.442 261.832,143.109 264.5,141.5C 272.588,143.582 280.088,146.915 287,151.5C 289.333,149.167 291.667,146.833 294,144.5C 293.421,125.415 302.587,115.915 321.5,116C 316.333,121.167 311.167,126.333 306,131.5C 306.675,136.538 307.842,141.538 309.5,146.5C 314.114,148.164 318.78,149.83 323.5,151.5C 329.167,146.167 334.833,140.833 340.5,135.5C 341.882,149.21 335.882,158.044 322.5,162C 319.167,162.333 315.833,162.667 312.5,163C 310.167,165.333 307.833,167.667 305.5,170C 310.195,177.043 313.529,184.71 315.5,193C 313.037,195.07 310.371,196.903 307.5,198.5C 306.337,204.137 306.17,209.804 307,215.5C 310.089,216.96 312.922,218.793 315.5,221C 313.432,229.371 310.099,237.204 305.5,244.5C 310.522,251.647 317.522,254.814 326.5,254C 333.864,257.236 338.53,262.736 340.5,270.5C 350.85,270.44 361.183,270.774 371.5,271.5 Z"/></g>
<g><path style="opacity:1" fill="#e4e4e4" d="M 231.5,143.5 C 232.873,143.343 234.207,143.51 235.5,144C 236.833,146.333 238.167,148.667 239.5,151C 246.192,151.831 252.858,151.664 259.5,150.5C 260.811,147.865 262.478,145.531 264.5,143.5C 271.895,144.962 278.561,147.962 284.5,152.5C 283.515,154.098 283.349,155.765 284,157.5C 287.5,154 291,150.5 294.5,147C 295.332,146.312 295.998,146.479 296.5,147.5C 291.515,152.985 286.348,158.319 281,163.5C 280.308,162.975 279.808,162.308 279.5,161.5C 283.499,154.97 281.833,150.804 274.5,149C 271.24,148.025 268.073,146.858 265,145.5C 263.5,147.833 262,150.167 260.5,152.5C 253.189,153.665 245.856,153.831 238.5,153C 237.126,150.417 235.626,147.917 234,145.5C 227.713,147.228 221.88,149.894 216.5,153.5C 218.286,156.404 218.619,159.404 217.5,162.5C 212.167,157.833 207.167,152.833 202.5,147.5C 203.002,146.479 203.668,146.312 204.5,147C 208,150.5 211.5,154 215,157.5C 214.782,155.413 214.949,153.413 215.5,151.5C 220.647,148.26 225.98,145.593 231.5,143.5 Z"/></g>
<g><path style="opacity:1" fill="#fafafa" d="M 240.5,158.5 C 271.352,156.817 290.519,170.817 298,200.5C 299.536,225.283 289.036,242.783 266.5,253C 242.234,260.467 222.734,253.967 208,233.5C 194.523,207.587 199.023,185.421 221.5,167C 227.453,163.081 233.786,160.248 240.5,158.5 Z"/></g>
<g><path style="opacity:1" fill="#dfdfdf" d="M 307.5,160.5 C 309.355,160.272 310.188,160.939 310,162.5C 306.5,166 303,169.5 299.5,173C 301.527,172.502 303.527,172.669 305.5,173.5C 308.95,179.519 311.616,185.852 313.5,192.5C 311.17,194.667 308.503,196.334 305.5,197.5C 304.336,203.807 304.169,210.141 305,216.5C 307.748,218.458 310.582,220.291 313.5,222C 311.329,228.673 308.663,235.173 305.5,241.5C 303.784,241.997 302.117,242.331 300.5,242.5C 303.651,246.151 306.984,249.651 310.5,253C 310,253.167 309.5,253.333 309,253.5C 303.544,249.046 298.377,244.213 293.5,239C 294,238.5 294.5,238 295,237.5C 298.064,239.216 301.231,239.55 304.5,238.5C 307.284,233.813 309.284,228.813 310.5,223.5C 308.353,221.161 305.853,219.161 303,217.5C 302.169,210.476 302.336,203.476 303.5,196.5C 305.583,195.041 307.75,193.708 310,192.5C 309.702,186.436 307.868,180.769 304.5,175.5C 300.871,175.648 297.205,175.648 293.5,175.5C 298.188,170.48 302.855,165.48 307.5,160.5 Z"/></g>
<g><path style="opacity:1" fill="#8a8a8a" d="M 266.5,176.5 C 274.044,182.127 281.044,188.46 287.5,195.5C 286.635,196.583 285.635,196.749 284.5,196C 277.904,189.91 271.904,183.41 266.5,176.5 Z"/></g>
<g><path style="opacity:1" fill="#7b7b7b" d="M 229.5,176.5 C 231.028,176.517 231.528,177.184 231,178.5C 224.986,184.682 218.819,190.682 212.5,196.5C 211.479,195.998 211.312,195.332 212,194.5C 218.036,188.631 223.87,182.631 229.5,176.5 Z"/></g>
<g><path style="opacity:1" fill="#7c7c7c" d="M 264.5,180.5 C 264.897,179.475 265.563,179.308 266.5,180C 272.333,185.833 278.167,191.667 284,197.5C 284.667,198.167 284.667,198.833 284,199.5C 277.631,192.964 271.131,186.631 264.5,180.5 Z"/></g>
<g><path style="opacity:1" fill="#797979" d="M 238.5,228.5 C 238.084,226.248 236.751,224.748 234.5,224C 243.167,216 251.833,208 260.5,200C 257.772,197.135 254.438,195.635 250.5,195.5C 253.991,190.331 258.325,185.664 263.5,181.5C 270.167,187.5 276.5,193.833 282.5,200.5C 278.5,205.167 274.167,209.5 269.5,213.5C 268.445,209.722 266.612,206.389 264,203.5C 256.282,211.763 248.449,219.929 240.5,228C 239.906,228.464 239.239,228.631 238.5,228.5 Z"/></g>
<g><path style="opacity:1" fill="#767676" d="M 234.5,181.5 C 239.573,185.066 244.24,189.232 248.5,194C 238.667,197.167 232.167,203.667 229,213.5C 224.651,209.318 220.485,204.985 216.5,200.5C 222.522,194.146 228.522,187.813 234.5,181.5 Z"/></g>
<g><path style="opacity:1" fill="#909090" d="M 232.5,179.5 C 233.239,179.369 233.906,179.536 234.5,180C 228,186.5 221.5,193 215,199.5C 214.333,198.833 214.333,198.167 215,197.5C 221.036,191.631 226.87,185.631 232.5,179.5 Z"/></g>
<g><path style="opacity:1" fill="#f2f2f2" d="M 231.5,194.5 C 235.068,194.759 236.401,196.759 235.5,200.5C 229.541,201.222 228.207,199.222 231.5,194.5 Z"/></g>
<g><path style="opacity:1" fill="#f5f5f5" d="M 264.5,194.5 C 268.35,194.701 269.35,196.534 267.5,200C 262.289,200.546 261.289,198.713 264.5,194.5 Z"/></g>
<g><path style="opacity:1" fill="#e3e3e3" d="M 192.5,239.5 C 189.21,234.082 186.877,228.249 185.5,222C 188.07,219.913 190.737,218.08 193.5,216.5C 193.666,210.158 193.5,203.825 193,197.5C 190.913,196.206 188.746,195.039 186.5,194C 185.941,193.275 185.608,192.442 185.5,191.5C 187.169,185.161 189.669,179.161 193,173.5C 195.09,172.848 197.257,172.681 199.5,173C 195.651,169.318 191.984,165.485 188.5,161.5C 189.002,160.479 189.668,160.312 190.5,161C 195,165.5 199.5,170 204,174.5C 204.432,175.6 203.932,176.267 202.5,176.5C 200.116,175.988 197.783,175.321 195.5,174.5C 192.047,179.743 189.38,185.409 187.5,191.5C 190.086,193.043 192.586,194.709 195,196.5C 195.831,203.856 195.665,211.189 194.5,218.5C 192.032,219.803 189.699,221.303 187.5,223C 189.247,228.57 191.581,233.904 194.5,239C 197.437,239.361 200.27,238.861 203,237.5C 204.059,237.63 204.892,238.13 205.5,239C 200.333,244.167 195.167,249.333 190,254.5C 189.25,253.874 188.416,253.374 187.5,253C 191.167,249.333 194.833,245.667 198.5,242C 197.328,241.647 196.162,241.813 195,242.5C 193.69,241.87 192.856,240.87 192.5,239.5 Z"/></g>
<g><path style="opacity:1" fill="#7c7c7c" d="M 238.5,200.5 C 242.235,202.725 245.568,205.558 248.5,209C 247.094,211.449 245.094,212.449 242.5,212C 239.931,209.521 237.598,206.854 235.5,204C 236.71,202.961 237.71,201.794 238.5,200.5 Z"/></g>
<g><path style="opacity:1" fill="#777777" d="M 253.5,215.5 C 257.541,217.199 260.874,219.866 263.5,223.5C 262.185,225.316 260.685,226.983 259,228.5C 256.167,225.667 253.333,222.833 250.5,220C 252.141,218.871 253.141,217.371 253.5,215.5 Z"/></g>
<g><path style="opacity:1" fill="#242424" d="M 191.5,216.5 C 192.167,216.5 192.833,216.5 193.5,216.5C 190.737,218.08 188.07,219.913 185.5,222C 186.877,228.249 189.21,234.082 192.5,239.5C 191.662,239.842 191.328,240.508 191.5,241.5C 188.055,235.597 185.389,229.264 183.5,222.5C 184.993,219.072 187.659,217.072 191.5,216.5 Z"/></g>
<g><path style="opacity:1" fill="#7d7d7d" d="M 238.5,228.5 C 238.894,229.967 239.227,231.467 239.5,233C 238.678,235.472 238.011,237.972 237.5,240.5C 224.547,244.046 219.714,239.379 223,226.5C 228.709,223.388 233.876,224.054 238.5,228.5 Z"/></g>
<g><path style="opacity:1" fill="#7a7a7a" d="M 264.5,224.5 C 268.198,224.552 271.865,224.886 275.5,225.5C 278.991,238.508 274.324,243.341 261.5,240C 258.045,233.888 259.045,228.721 264.5,224.5 Z"/></g>
<g><path style="opacity:1" fill="#f9f9f9" d="M 226.5,227.5 C 235.24,226.717 237.907,230.217 234.5,238C 229.023,240.595 225.689,238.928 224.5,233C 224.758,230.991 225.425,229.157 226.5,227.5 Z"/></g>
<g><path style="opacity:1" fill="#f7f7f7" d="M 264.5,227.5 C 273.24,226.717 275.907,230.217 272.5,238C 264.735,240.575 261.568,237.742 263,229.5C 263.717,228.956 264.217,228.289 264.5,227.5 Z"/></g>
<g><path style="opacity:1" fill="#f3f3f3" d="M 181.5,258.5 C 184.084,258.569 186.084,259.735 187.5,262C 189.473,262.495 191.473,262.662 193.5,262.5C 193.286,264.144 193.62,265.644 194.5,267C 193.833,267.333 193.167,267.667 192.5,268C 183.48,268.319 174.48,268.819 165.5,269.5C 165.561,266.95 166.894,265.45 169.5,265C 170.872,263.758 171.872,262.258 172.5,260.5C 174.075,259.554 175.742,259.554 177.5,260.5C 179.171,260.332 180.504,259.665 181.5,258.5 Z"/></g>
<g><path style="opacity:1" fill="#f2f2f2" d="M 313.5,258.5 C 316.435,258.717 319.269,259.383 322,260.5C 323.107,260.415 324.107,260.081 325,259.5C 327.003,263.335 329.836,266.335 333.5,268.5C 323.903,268.68 314.236,268.68 304.5,268.5C 303.533,263.633 305.533,261.466 310.5,262C 311.71,260.961 312.71,259.794 313.5,258.5 Z"/></g>
<g><path style="opacity:1" fill="#dfdfdf" d="M 216.5,251.5 C 217.649,251.791 218.316,252.624 218.5,254C 218.139,256.449 217.472,258.782 216.5,261C 222.054,265.382 228.221,267.548 235,267.5C 235.914,265.336 237.081,263.336 238.5,261.5C 245.833,260.167 253.167,260.167 260.5,261.5C 261.744,267.632 265.077,269.466 270.5,267C 273.952,265.774 277.285,264.274 280.5,262.5C 281.122,258.874 281.289,255.207 281,251.5C 286.015,256.682 291.181,261.682 296.5,266.5C 296.192,267.308 295.692,267.975 295,268.5C 291.333,264.833 287.667,261.167 284,257.5C 283.28,259.112 283.446,260.612 284.5,262C 283.833,262.667 283.167,263.333 282.5,264C 276.477,266.896 270.31,269.396 264,271.5C 262.291,268.582 260.458,265.748 258.5,263C 252.141,262.169 245.807,262.336 239.5,263.5C 238.206,266.837 236.04,269.17 233,270.5C 226.784,269.143 220.951,266.81 215.5,263.5C 214.669,261.527 214.502,259.527 215,257.5C 211.318,261.349 207.485,265.016 203.5,268.5C 202.417,267.635 202.251,266.635 203,265.5C 207.703,260.965 212.203,256.298 216.5,251.5 Z"/></g>
<g><path style="opacity:1" fill="#6f6f6f" d="M 371.5,271.5 C 378.837,271.872 386.171,272.372 393.5,273C 360.331,273.831 327.331,273.664 294.5,272.5C 320.339,272.831 346.005,272.498 371.5,271.5 Z"/></g>
<g><path style="opacity:1" fill="#6f6f6f" d="M 204.5,270.5 C 204.5,271.5 204.5,272.5 204.5,273.5C 171.498,273.667 138.498,273.5 105.5,273C 112.829,272.372 120.163,271.872 127.5,271.5C 139.996,272.167 152.662,272.5 165.5,272.5C 178.723,272.481 191.723,271.815 204.5,270.5 Z"/></g>
<g><path style="opacity:1" fill="#c9c9c9" d="M 169.5,296.5 C 158.833,296.5 148.167,296.5 137.5,296.5C 137.5,298.833 137.5,301.167 137.5,303.5C 136.527,301.052 136.194,298.385 136.5,295.5C 147.679,295.172 158.679,295.505 169.5,296.5 Z"/></g>
<g><path style="opacity:1" fill="#010101" d="M 169.5,296.5 C 169.5,300.5 169.5,304.5 169.5,308.5C 166.5,308.5 163.5,308.5 160.5,308.5C 160.5,306.833 160.5,305.167 160.5,303.5C 157.5,303.5 154.5,303.5 151.5,303.5C 151.5,306.833 151.5,310.167 151.5,313.5C 155.167,313.5 158.833,313.5 162.5,313.5C 162.5,315.833 162.5,318.167 162.5,320.5C 158.833,320.5 155.167,320.5 151.5,320.5C 151.5,322.833 151.5,325.167 151.5,327.5C 153.5,327.5 155.5,327.5 157.5,327.5C 157.5,329.833 157.5,332.167 157.5,334.5C 150.833,334.5 144.167,334.5 137.5,334.5C 137.5,332.167 137.5,329.833 137.5,327.5C 138.5,327.5 139.5,327.5 140.5,327.5C 140.826,319.316 140.492,311.316 139.5,303.5C 138.833,303.5 138.167,303.5 137.5,303.5C 137.5,301.167 137.5,298.833 137.5,296.5C 148.167,296.5 158.833,296.5 169.5,296.5 Z"/></g>
<g><path style="opacity:1" fill="#070707" d="M 180.5,296.5 C 187.833,296.5 195.167,296.5 202.5,296.5C 205.708,306.79 208.708,317.123 211.5,327.5C 212.833,327.5 214.167,327.5 215.5,327.5C 215.5,329.833 215.5,332.167 215.5,334.5C 208.167,334.5 200.833,334.5 193.5,334.5C 193.5,332.167 193.5,329.833 193.5,327.5C 195.167,327.5 196.833,327.5 198.5,327.5C 198.5,326.167 198.5,324.833 198.5,323.5C 194.167,323.5 189.833,323.5 185.5,323.5C 185.5,324.833 185.5,326.167 185.5,327.5C 186.833,327.5 188.167,327.5 189.5,327.5C 189.5,329.833 189.5,332.167 189.5,334.5C 183.5,334.5 177.5,334.5 171.5,334.5C 171.5,332.167 171.5,329.833 171.5,327.5C 172.978,327.762 174.311,327.429 175.5,326.5C 178.269,319.464 180.603,312.298 182.5,305C 180.854,302.405 180.187,299.572 180.5,296.5 Z"/></g>
<g><path style="opacity:1" fill="#030303" d="M 218.5,296.5 C 225.841,296.334 233.174,296.5 240.5,297C 250.32,298.639 252.987,303.973 248.5,313C 246.913,313.862 245.246,314.529 243.5,315C 248.558,317.216 250.892,321.049 250.5,326.5C 251.5,326.5 252.5,326.5 253.5,326.5C 253.5,325.5 253.5,324.5 253.5,323.5C 254.5,323.5 255.5,323.5 256.5,323.5C 257.29,333.122 252.957,336.622 243.5,334C 241.333,333.167 239.833,331.667 239,329.5C 238.82,326.044 238.153,322.711 237,319.5C 235.644,318.62 234.144,318.286 232.5,318.5C 232.5,321.5 232.5,324.5 232.5,327.5C 233.5,327.5 234.5,327.5 235.5,327.5C 235.5,329.833 235.5,332.167 235.5,334.5C 229.833,334.5 224.167,334.5 218.5,334.5C 218.5,332.167 218.5,329.833 218.5,327.5C 219.5,327.5 220.5,327.5 221.5,327.5C 221.5,319.5 221.5,311.5 221.5,303.5C 220.5,303.5 219.5,303.5 218.5,303.5C 218.5,301.167 218.5,298.833 218.5,296.5 Z"/></g>
<g><path style="opacity:1" fill="#070707" d="M 258.5,327.5 C 259.833,327.5 261.167,327.5 262.5,327.5C 262.826,319.316 262.492,311.316 261.5,303.5C 260.5,303.5 259.5,303.5 258.5,303.5C 258.5,301.167 258.5,298.833 258.5,296.5C 267.25,296.09 275.916,296.59 284.5,298C 296.532,303.929 299.698,313.095 294,325.5C 290.774,330.205 286.274,333.038 280.5,334C 273.174,334.5 265.841,334.666 258.5,334.5C 258.5,332.167 258.5,329.833 258.5,327.5 Z"/></g>
<g><path style="opacity:1" fill="#040404" d="M 298.5,296.5 C 304.5,296.5 310.5,296.5 316.5,296.5C 316.5,298.833 316.5,301.167 316.5,303.5C 315.5,303.5 314.5,303.5 313.5,303.5C 313.5,311.5 313.5,319.5 313.5,327.5C 314.5,327.5 315.5,327.5 316.5,327.5C 316.5,329.833 316.5,332.167 316.5,334.5C 310.5,334.5 304.5,334.5 298.5,334.5C 298.5,332.167 298.5,329.833 298.5,327.5C 299.833,327.5 301.167,327.5 302.5,327.5C 302.5,319.5 302.5,311.5 302.5,303.5C 301.167,303.5 299.833,303.5 298.5,303.5C 298.5,301.167 298.5,298.833 298.5,296.5 Z"/></g>
<g><path style="opacity:1" fill="#050505" d="M 319.5,296.5 C 324.844,296.334 330.177,296.501 335.5,297C 340,303.5 344.5,310 349,316.5C 349.499,312.179 349.666,307.846 349.5,303.5C 348.167,303.5 346.833,303.5 345.5,303.5C 345.5,301.167 345.5,298.833 345.5,296.5C 350.833,296.5 356.167,296.5 361.5,296.5C 361.5,298.833 361.5,301.167 361.5,303.5C 360.5,303.5 359.5,303.5 358.5,303.5C 358.5,313.833 358.5,324.167 358.5,334.5C 354.486,334.666 350.486,334.499 346.5,334C 342,327.5 337.5,321 333,314.5C 332.501,318.821 332.334,323.154 332.5,327.5C 333.833,327.5 335.167,327.5 336.5,327.5C 336.5,329.833 336.5,332.167 336.5,334.5C 330.833,334.5 325.167,334.5 319.5,334.5C 319.5,332.167 319.5,329.833 319.5,327.5C 320.833,327.5 322.167,327.5 323.5,327.5C 323.5,319.5 323.5,311.5 323.5,303.5C 322.167,303.5 320.833,303.5 319.5,303.5C 319.5,301.167 319.5,298.833 319.5,296.5 Z"/></g>
<g><path style="opacity:1" fill="#c9c9c9" d="M 139.5,303.5 C 140.492,311.316 140.826,319.316 140.5,327.5C 139.5,327.5 138.5,327.5 137.5,327.5C 137.5,329.833 137.5,332.167 137.5,334.5C 136.527,332.052 136.194,329.385 136.5,326.5C 137.5,326.5 138.5,326.5 139.5,326.5C 139.5,318.833 139.5,311.167 139.5,303.5 Z"/></g>
<g><path style="opacity:1" fill="#f1f1f1" d="M 232.5,303.5 C 238.933,302.652 241.266,305.152 239.5,311C 237.323,312.202 234.989,312.702 232.5,312.5C 232.5,309.5 232.5,306.5 232.5,303.5 Z"/></g>
<g><path style="opacity:1" fill="#ababab" d="M 261.5,303.5 C 262.492,311.316 262.826,319.316 262.5,327.5C 261.167,327.5 259.833,327.5 258.5,327.5C 259.209,326.596 260.209,326.263 261.5,326.5C 261.5,318.833 261.5,311.167 261.5,303.5 Z"/></g>
<g><path style="opacity:1" fill="#f9f9f9" d="M 273.5,303.5 C 280.982,303.317 284.315,306.984 283.5,314.5C 284.53,322.447 281.197,326.78 273.5,327.5C 273.5,319.5 273.5,311.5 273.5,303.5 Z"/></g>
<g><path style="opacity:1" fill="#d7d7d7" d="M 191.5,305.5 C 193.74,309.098 195.074,313.098 195.5,317.5C 193.167,317.5 190.833,317.5 188.5,317.5C 189.09,313.397 190.09,309.397 191.5,305.5 Z"/></g>
<g><path style="opacity:1" fill="#777777" d="M 166.5,357.5 C 167.978,357.238 169.311,357.571 170.5,358.5C 172.333,360.833 174.167,363.167 176,365.5C 177.833,363 179.667,360.5 181.5,358C 182.793,357.51 184.127,357.343 185.5,357.5C 185.5,363.5 185.5,369.5 185.5,375.5C 184.167,375.5 182.833,375.5 181.5,375.5C 181.665,371.818 181.499,368.152 181,364.5C 177.508,371.081 174.008,371.081 170.5,364.5C 169.511,368.107 169.177,371.774 169.5,375.5C 168.5,375.5 167.5,375.5 166.5,375.5C 166.5,369.5 166.5,363.5 166.5,357.5 Z"/></g>
<g><path style="opacity:1" fill="#7a7a7a" d="M 198.5,357.5 C 198.5,358.5 198.5,359.5 198.5,360.5C 196.167,360.5 193.833,360.5 191.5,360.5C 191.5,361.833 191.5,363.167 191.5,364.5C 193.5,364.5 195.5,364.5 197.5,364.5C 197.5,365.5 197.5,366.5 197.5,367.5C 195.5,367.5 193.5,367.5 191.5,367.5C 191.5,369.167 191.5,370.833 191.5,372.5C 193.833,372.5 196.167,372.5 198.5,372.5C 198.5,373.5 198.5,374.5 198.5,375.5C 194.833,375.5 191.167,375.5 187.5,375.5C 187.5,369.5 187.5,363.5 187.5,357.5C 191.167,357.5 194.833,357.5 198.5,357.5 Z"/></g>
<g><path style="opacity:1" fill="#7c7c7c" d="M 206.5,357.5 C 210.05,357.133 213.05,358.133 215.5,360.5C 215.167,361.5 214.5,362.167 213.5,362.5C 208.93,360.408 205.93,361.741 204.5,366.5C 206.515,371.772 209.848,372.772 214.5,369.5C 216.968,371.991 216.302,373.824 212.5,375C 203.339,375.829 199.839,371.662 202,362.5C 203.193,360.503 204.693,358.836 206.5,357.5 Z"/></g>
<g><path style="opacity:1" fill="#7f7f7f" d="M 218.5,357.5 C 219.833,357.5 221.167,357.5 222.5,357.5C 222.5,359.5 222.5,361.5 222.5,363.5C 225.167,363.5 227.833,363.5 230.5,363.5C 230.5,361.5 230.5,359.5 230.5,357.5C 231.833,357.5 233.167,357.5 234.5,357.5C 234.5,363.5 234.5,369.5 234.5,375.5C 233.167,375.5 231.833,375.5 230.5,375.5C 230.5,372.833 230.5,370.167 230.5,367.5C 227.833,367.5 225.167,367.5 222.5,367.5C 222.5,370.167 222.5,372.833 222.5,375.5C 221.167,375.5 219.833,375.5 218.5,375.5C 218.5,369.5 218.5,363.5 218.5,357.5 Z"/></g>
<g><path style="opacity:1" fill="#7a7a7a" d="M 243.5,357.5 C 245.288,357.215 246.955,357.548 248.5,358.5C 250.935,363.976 253.268,369.476 255.5,375C 252.074,376.238 250.408,375.071 250.5,371.5C 247.5,371.5 244.5,371.5 241.5,371.5C 241.592,375.071 239.926,376.238 236.5,375C 239.325,369.359 241.658,363.526 243.5,357.5 Z"/></g>
<g><path style="opacity:1" fill="#797979" d="M 257.5,357.5 C 258.873,357.343 260.207,357.51 261.5,358C 263.632,361.764 266.132,365.264 269,368.5C 269.499,364.848 269.665,361.182 269.5,357.5C 270.833,357.5 272.167,357.5 273.5,357.5C 273.5,363.5 273.5,369.5 273.5,375.5C 272.127,375.657 270.793,375.49 269.5,375C 266.877,371.588 264.377,368.088 262,364.5C 261.501,368.152 261.335,371.818 261.5,375.5C 260.167,375.5 258.833,375.5 257.5,375.5C 257.5,369.5 257.5,363.5 257.5,357.5 Z"/></g>
<g><path style="opacity:1" fill="#7e7e7e" d="M 275.5,357.5 C 277.833,357.5 280.167,357.5 282.5,357.5C 281.167,363.5 281.167,369.5 282.5,375.5C 280.167,375.5 277.833,375.5 275.5,375.5C 278.167,369.5 278.167,363.5 275.5,357.5 Z"/></g>
<g><path style="opacity:1" fill="#797979" d="M 308.5,357.5 C 310.467,357.261 312.301,357.594 314,358.5C 315.89,363.947 318.057,369.28 320.5,374.5C 318.124,375.817 316.457,375.15 315.5,372.5C 312.894,371.348 310.227,371.182 307.5,372C 306.663,373.011 306.33,374.178 306.5,375.5C 305.167,375.5 303.833,375.5 302.5,375.5C 304.5,369.5 306.5,363.5 308.5,357.5 Z"/></g>
<g><path style="opacity:1" fill="#767676" d="M 322.5,357.5 C 323.833,357.5 325.167,357.5 326.5,357.5C 326.5,362.5 326.5,367.5 326.5,372.5C 328.833,372.5 331.167,372.5 333.5,372.5C 333.5,373.5 333.5,374.5 333.5,375.5C 329.833,375.5 326.167,375.5 322.5,375.5C 322.5,369.5 322.5,363.5 322.5,357.5 Z"/></g>
<g><path style="opacity:1" fill="#797979" d="M 290.5,357.5 C 293.798,357.016 296.464,358.016 298.5,360.5C 297.406,362.303 295.739,362.636 293.5,361.5C 288.849,362.193 287.349,364.859 289,369.5C 291.925,372.059 294.925,372.059 298,369.5C 299.984,372.317 299.15,374.151 295.5,375C 287.53,375.361 284.03,371.527 285,363.5C 286.36,360.977 288.193,358.977 290.5,357.5 Z"/></g>
<g><path style="opacity:1" fill="#b8b8b8" d="M 198.5,357.5 C 199.434,358.568 199.768,359.901 199.5,361.5C 197.076,361.192 194.743,361.526 192.5,362.5C 194.396,363.466 196.396,363.799 198.5,363.5C 198.768,365.099 198.434,366.432 197.5,367.5C 197.5,366.5 197.5,365.5 197.5,364.5C 195.5,364.5 193.5,364.5 191.5,364.5C 191.5,363.167 191.5,361.833 191.5,360.5C 193.833,360.5 196.167,360.5 198.5,360.5C 198.5,359.5 198.5,358.5 198.5,357.5 Z"/></g>
<g><path style="opacity:1" fill="#efefef" d="M 245.5,362.5 C 246.931,363.78 247.598,365.447 247.5,367.5C 246.5,367.5 245.5,367.5 244.5,367.5C 244.629,365.784 244.962,364.117 245.5,362.5 Z"/></g>
<g><path style="opacity:1" fill="#e6e6e6" d="M 310.5,363.5 C 314.546,366.464 314.213,368.131 309.5,368.5C 309.629,366.784 309.962,365.117 310.5,363.5 Z"/></g>
</svg>
