<?xml version="1.0" encoding="UTF-8"?>
<!DOCTYPE svg PUBLIC "-//W3C//DTD SVG 1.1//EN" "http://www.w3.org/Graphics/SVG/1.1/DTD/svg11.dtd">
<svg xmlns="http://www.w3.org/2000/svg" version="1.1" width="300px" height="300px" style="shape-rendering:geometricPrecision; text-rendering:geometricPrecision; image-rendering:optimizeQuality; fill-rule:evenodd; clip-rule:evenodd" xmlns:xlink="http://www.w3.org/1999/xlink">
<g><path style="opacity:1" fill="#f6f3ee" d="M 215.5,-0.5 C 228.5,-0.5 241.5,-0.5 254.5,-0.5C 254.237,3.60023 254.57,7.60023 255.5,11.5C 250.332,8.77781 244.999,6.44448 239.5,4.5C 231.652,1.99255 223.652,0.32588 215.5,-0.5 Z"/></g>
<g><path style="opacity:1" fill="#dddddd" d="M 284.5,-0.5 C 289.5,-0.5 294.5,-0.5 299.5,-0.5C 299.5,4.5 299.5,9.5 299.5,14.5C 294.5,14.5 289.5,14.5 284.5,14.5C 284.5,9.5 284.5,4.5 284.5,-0.5 Z"/></g>
<g><path style="opacity:1" fill="#e5e2e0" d="M 44.5,-0.5 C 56.1667,-0.5 67.8333,-0.5 79.5,-0.5C 67.4764,1.6588 55.8098,5.32547 44.5,10.5C 44.5,6.83333 44.5,3.16667 44.5,-0.5 Z"/></g>
<g><path style="opacity:1" fill="#ef7c02" d="M 79.5,-0.5 C 124.833,-0.5 170.167,-0.5 215.5,-0.5C 223.652,0.32588 231.652,1.99255 239.5,4.5C 240.23,6.04504 241.563,6.87838 243.5,7C 238.5,7.1125 233.5,6.77916 228.5,6C 232.353,5.33763 232.353,4.50429 228.5,3.5C 226.651,5.326 224.651,5.65933 222.5,4.5C 221.205,5.09826 219.872,5.59826 218.5,6C 221.167,6.33333 223.833,6.66667 226.5,7C 220.175,7.49954 213.842,7.66621 207.5,7.5C 207.5,10.1667 207.5,12.8333 207.5,15.5C 212.833,15.5 218.167,15.5 223.5,15.5C 223.5,18.1667 223.5,20.8333 223.5,23.5C 217.491,23.3338 211.491,23.5005 205.5,24C 208.063,24.763 208.063,25.263 205.5,25.5C 202.278,24.0311 198.944,23.5311 195.5,24C 197.911,25.5829 200.578,26.5829 203.5,27C 202.167,27.3333 200.833,27.6667 199.5,28C 201.957,29.5438 204.291,31.0438 206.5,32.5C 198.749,29.5816 190.749,27.9149 182.5,27.5C 170.191,26.6567 158.525,28.6567 147.5,33.5C 137.772,36.863 128.772,41.5297 120.5,47.5C 98.6498,62.0153 81.3165,80.6819 68.5,103.5C 66.3151,107.846 63.9818,112.18 61.5,116.5C 60.5592,118.05 59.8925,119.716 59.5,121.5C 56.8958,125.778 54.8958,130.445 53.5,135.5C 52.0027,138.627 51.0027,141.96 50.5,145.5C 48.5811,149.857 47.5811,154.524 47.5,159.5C 45.6943,164.547 44.6943,169.88 44.5,175.5C 43.0944,186.141 41.4277,196.807 39.5,207.5C 40.5,207.5 41.5,207.5 42.5,207.5C 42.335,204.15 42.5017,200.817 43,197.5C 44.0948,201.77 44.9282,206.104 45.5,210.5C 44.5429,213.15 42.8762,213.817 40.5,212.5C 38.8915,207.793 36.5582,207.626 33.5,212C 33.8333,212.333 34.1667,212.667 34.5,213C 33.552,213.483 32.552,213.649 31.5,213.5C 31.3832,211.516 32.0499,209.85 33.5,208.5C 32.5934,205.579 32.2601,202.579 32.5,199.5C 26.8333,199.5 21.1667,199.5 15.5,199.5C 15.5,202.167 15.5,204.833 15.5,207.5C 14.5,207.5 13.5,207.5 12.5,207.5C 13.1635,198.162 13.4968,188.829 13.5,179.5C 13,175.5 12.5,171.5 12,167.5C 11.348,187.226 11.0146,206.893 11,226.5C 10.0853,225.672 9.41862,224.672 9,223.5C 8.83333,198.167 8.66667,172.833 8.5,147.5C 8.55287,120.132 9.21953,92.7984 10.5,65.5C 10.0433,62.0854 9.37661,58.7521 8.5,55.5C 9.0991,52.0369 10.0991,48.7036 11.5,45.5C 20.0037,31.5034 31.0037,19.8367 44.5,10.5C 55.8098,5.32547 67.4764,1.6588 79.5,-0.5 Z"/></g>
<g><path style="opacity:1" fill="#ef7c04" d="M 239.5,4.5 C 244.999,6.44448 250.332,8.77781 255.5,11.5C 268.562,20.5625 279.229,31.8959 287.5,45.5C 289.66,51.4564 291.827,57.4564 294,63.5C 295.191,68.7674 295.691,74.1007 295.5,79.5C 295.83,96.0085 295.496,112.342 294.5,128.5C 294.5,128.833 294.5,129.167 294.5,129.5C 287.768,133.203 281.768,137.869 276.5,143.5C 274.5,144.833 272.833,146.5 271.5,148.5C 270.833,149.5 270.167,150.5 269.5,151.5C 264.575,155.758 259.908,160.425 255.5,165.5C 255.5,165.833 255.5,166.167 255.5,166.5C 254.508,166.328 253.842,166.662 253.5,167.5C 250.427,169.569 248.094,172.236 246.5,175.5C 243.547,176.787 241.214,178.787 239.5,181.5C 239.167,182.167 238.833,182.833 238.5,183.5C 233.868,186.798 229.534,190.464 225.5,194.5C 224.167,194.5 223.5,195.167 223.5,196.5C 215.023,202.578 206.023,207.911 196.5,212.5C 189.534,214.988 182.534,216.988 175.5,218.5C 170.167,218.5 164.833,218.5 159.5,218.5C 156.833,218.167 154.167,217.833 151.5,217.5C 144.537,213.41 141.204,215.41 141.5,223.5C 141.167,223.5 140.833,223.5 140.5,223.5C 139.132,227.298 138.132,231.298 137.5,235.5C 135.989,238.544 135.322,241.878 135.5,245.5C 134.5,245.5 133.5,245.5 132.5,245.5C 127.092,245.127 122.425,243.127 118.5,239.5C 117.833,239.5 117.167,239.5 116.5,239.5C 112.465,235.8 108.798,231.8 105.5,227.5C 103.819,224.797 102.153,222.131 100.5,219.5C 99.3411,215.849 97.6744,212.515 95.5,209.5C 95.6658,204.821 95.4992,200.155 95,195.5C 92.961,193.126 90.6277,191.126 88,189.5C 85.0704,185.474 82.2371,181.474 79.5,177.5C 75.0142,167.364 74.5142,157.03 78,146.5C 79.0687,142.655 80.5687,138.988 82.5,135.5C 88.5645,125.714 96.2311,117.381 105.5,110.5C 107.858,108.471 110.192,106.471 112.5,104.5C 115.295,103.937 117.628,102.604 119.5,100.5C 128.581,95.1274 138.248,91.1274 148.5,88.5C 153.913,87.4801 159.246,86.1468 164.5,84.5C 169.5,84.5 174.5,84.5 179.5,84.5C 183.481,85.0209 187.481,85.3542 191.5,85.5C 198.687,88.4267 205.687,91.9267 212.5,96C 216.036,99.429 219.036,103.262 221.5,107.5C 222.833,110.5 222.833,113.5 221.5,116.5C 220.166,119.355 218.166,121.855 215.5,124C 208.801,128.567 201.801,132.4 194.5,135.5C 188.561,136.594 182.894,138.261 177.5,140.5C 176.833,140.5 176.167,140.5 175.5,140.5C 171.519,141.021 167.519,141.354 163.5,141.5C 156.82,141.388 150.153,141.054 143.5,140.5C 140.86,139.552 138.193,138.552 135.5,137.5C 134.167,136.167 132.833,134.833 131.5,133.5C 130.87,131.25 129.87,129.25 128.5,127.5C 128.263,123.278 128.596,119.111 129.5,115C 128.162,113.456 126.829,113.623 125.5,115.5C 122.802,115.845 120.802,117.178 119.5,119.5C 116.48,121.523 114.146,124.19 112.5,127.5C 108.326,134.221 106.992,141.554 108.5,149.5C 109.509,155.534 112.509,160.201 117.5,163.5C 117.804,164.15 118.137,164.817 118.5,165.5C 114.726,169.163 112.059,173.496 110.5,178.5C 109.833,180.167 109.167,181.833 108.5,183.5C 105.884,191.493 105.884,199.493 108.5,207.5C 108.796,209.403 109.463,211.07 110.5,212.5C 111.148,214.086 111.648,215.753 112,217.5C 115.836,222.368 120.003,226.868 124.5,231C 125.793,231.49 127.127,231.657 128.5,231.5C 128.5,229.167 128.5,226.833 128.5,224.5C 130.477,219.203 132.477,213.87 134.5,208.5C 137.821,203.848 141.487,199.515 145.5,195.5C 147.167,194.5 148.5,193.167 149.5,191.5C 159.379,184.727 169.712,178.727 180.5,173.5C 190.324,169.419 199.991,165.086 209.5,160.5C 215.002,157.767 219.668,154.1 223.5,149.5C 223.833,149.5 224.167,149.5 224.5,149.5C 229.447,145.578 233.447,140.911 236.5,135.5C 248.754,111.04 249.587,86.0405 239,60.5C 238.148,59.4293 237.315,58.4293 236.5,57.5C 235.024,55.2314 233.524,52.8981 232,50.5C 225.412,43.0732 217.578,37.4065 208.5,33.5C 207.833,33.1667 207.167,32.8333 206.5,32.5C 204.291,31.0438 201.957,29.5438 199.5,28C 200.833,27.6667 202.167,27.3333 203.5,27C 200.578,26.5829 197.911,25.5829 195.5,24C 198.944,23.5311 202.278,24.0311 205.5,25.5C 208.063,25.263 208.063,24.763 205.5,24C 211.491,23.5005 217.491,23.3338 223.5,23.5C 223.5,20.8333 223.5,18.1667 223.5,15.5C 218.167,15.5 212.833,15.5 207.5,15.5C 207.5,12.8333 207.5,10.1667 207.5,7.5C 213.842,7.66621 220.175,7.49954 226.5,7C 223.833,6.66667 221.167,6.33333 218.5,6C 219.872,5.59826 221.205,5.09826 222.5,4.5C 224.651,5.65933 226.651,5.326 228.5,3.5C 232.353,4.50429 232.353,5.33763 228.5,6C 233.5,6.77916 238.5,7.1125 243.5,7C 241.563,6.87838 240.23,6.04504 239.5,4.5 Z"/></g>
<g><path style="opacity:1" fill="#dddddd" d="M -0.5,14.5 C 4.17853,14.3342 8.8452,14.5008 13.5,15C 14.4692,19.7367 14.8025,24.57 14.5,29.5C 9.5,29.5 4.5,29.5 -0.5,29.5C -0.5,24.5 -0.5,19.5 -0.5,14.5 Z"/></g>
<g><path style="opacity:1" fill="#fafaf9" d="M -0.5,-0.5 C 4.5,-0.5 9.5,-0.5 14.5,-0.5C 14.5,4.5 14.5,9.5 14.5,14.5C 19.5,14.5 24.5,14.5 29.5,14.5C 29.5,9.5 29.5,4.5 29.5,-0.5C 34.5,-0.5 39.5,-0.5 44.5,-0.5C 44.5,3.16667 44.5,6.83333 44.5,10.5C 31.0037,19.8367 20.0037,31.5034 11.5,45.5C 7.70159,44.5166 3.70159,44.1832 -0.5,44.5C -0.5,39.5 -0.5,34.5 -0.5,29.5C 4.5,29.5 9.5,29.5 14.5,29.5C 14.8025,24.57 14.4692,19.7367 13.5,15C 8.8452,14.5008 4.17853,14.3342 -0.5,14.5C -0.5,9.5 -0.5,4.5 -0.5,-0.5 Z"/></g>
<g><path style="opacity:1" fill="#dddddd" d="M 14.5,-0.5 C 19.5,-0.5 24.5,-0.5 29.5,-0.5C 29.5,4.5 29.5,9.5 29.5,14.5C 24.5,14.5 19.5,14.5 14.5,14.5C 14.5,9.5 14.5,4.5 14.5,-0.5 Z"/></g>
<g><path style="opacity:1" fill="#e1e0df" d="M 254.5,-0.5 C 259.5,-0.5 264.5,-0.5 269.5,-0.5C 269.5,4.5 269.5,9.5 269.5,14.5C 274.179,14.3342 278.845,14.5008 283.5,15C 284.469,19.7367 284.803,24.57 284.5,29.5C 289.5,29.5 294.5,29.5 299.5,29.5C 299.5,34.5 299.5,39.5 299.5,44.5C 295.298,44.1832 291.298,44.5166 287.5,45.5C 279.229,31.8959 268.562,20.5625 255.5,11.5C 254.57,7.60023 254.237,3.60023 254.5,-0.5 Z"/></g>
<g><path style="opacity:1" fill="#fefefe" d="M 269.5,-0.5 C 274.5,-0.5 279.5,-0.5 284.5,-0.5C 284.5,4.5 284.5,9.5 284.5,14.5C 289.5,14.5 294.5,14.5 299.5,14.5C 299.5,19.5 299.5,24.5 299.5,29.5C 294.5,29.5 289.5,29.5 284.5,29.5C 284.803,24.57 284.469,19.7367 283.5,15C 278.845,14.5008 274.179,14.3342 269.5,14.5C 269.5,9.5 269.5,4.5 269.5,-0.5 Z"/></g>
<g><path style="opacity:1" fill="#fefdfc" d="M 182.5,27.5 C 185.744,29.1119 189.411,30.1119 193.5,30.5C 194.14,35.0325 194.806,39.5325 195.5,44C 199.833,44.6667 204.167,44.6667 208.5,44C 209.797,40.5011 209.797,37.0011 208.5,33.5C 217.578,37.4065 225.412,43.0732 232,50.5C 233.524,52.8981 235.024,55.2314 236.5,57.5C 232.971,59.4228 228.971,60.0894 224.5,59.5C 224.5,64.5 224.5,69.5 224.5,74.5C 229.5,74.5 234.5,74.5 239.5,74.5C 239.5,79.5 239.5,84.5 239.5,89.5C 234.5,89.5 229.5,89.5 224.5,89.5C 224.666,84.8215 224.499,80.1548 224,75.5C 219.263,74.5308 214.43,74.1975 209.5,74.5C 209.5,69.5 209.5,64.5 209.5,59.5C 204.5,59.5 199.5,59.5 194.5,59.5C 194.5,54.5 194.5,49.5 194.5,44.5C 189.5,44.5 184.5,44.5 179.5,44.5C 179.666,39.8215 179.499,35.1548 179,30.5C 174.263,29.5308 169.43,29.1975 164.5,29.5C 164.5,34.5 164.5,39.5 164.5,44.5C 159.5,44.5 154.5,44.5 149.5,44.5C 149.964,40.4975 149.298,36.8309 147.5,33.5C 158.525,28.6567 170.191,26.6567 182.5,27.5 Z"/></g>
<g><path style="opacity:1" fill="#dddddd" d="M 179.5,44.5 C 174.5,44.5 169.5,44.5 164.5,44.5C 164.5,39.5 164.5,34.5 164.5,29.5C 169.43,29.1975 174.263,29.5308 179,30.5C 179.499,35.1548 179.666,39.8215 179.5,44.5 Z"/></g>
<g><path style="opacity:1" fill="#dddddd" d="M 182.5,27.5 C 190.749,27.9149 198.749,29.5816 206.5,32.5C 207.167,32.8333 207.833,33.1667 208.5,33.5C 209.797,37.0011 209.797,40.5011 208.5,44C 204.167,44.6667 199.833,44.6667 195.5,44C 194.806,39.5325 194.14,35.0325 193.5,30.5C 189.411,30.1119 185.744,29.1119 182.5,27.5 Z"/></g>
<g><path style="opacity:1" fill="#fefefe" d="M 149.5,44.5 C 149.5,49.5 149.5,54.5 149.5,59.5C 144.5,59.5 139.5,59.5 134.5,59.5C 134.5,54.5 134.5,49.5 134.5,44.5C 139.5,44.5 144.5,44.5 149.5,44.5 Z"/></g>
<g><path style="opacity:1" fill="#dddddd" d="M 149.5,44.5 C 154.5,44.5 159.5,44.5 164.5,44.5C 164.5,49.5 164.5,54.5 164.5,59.5C 159.5,59.5 154.5,59.5 149.5,59.5C 149.5,54.5 149.5,49.5 149.5,44.5 Z"/></g>
<g><path style="opacity:1" fill="#fefefe" d="M 164.5,44.5 C 169.5,44.5 174.5,44.5 179.5,44.5C 179.5,49.5 179.5,54.5 179.5,59.5C 174.5,59.5 169.5,59.5 164.5,59.5C 164.5,54.5 164.5,49.5 164.5,44.5 Z"/></g>
<g><path style="opacity:1" fill="#dddddd" d="M 179.5,44.5 C 184.5,44.5 189.5,44.5 194.5,44.5C 194.5,49.5 194.5,54.5 194.5,59.5C 189.5,59.5 184.5,59.5 179.5,59.5C 179.5,54.5 179.5,49.5 179.5,44.5 Z"/></g>
<g><path style="opacity:1" fill="#dddddd" d="M 209.5,59.5 C 209.5,54.5 209.5,49.5 209.5,44.5C 214.179,44.3342 218.845,44.5008 223.5,45C 224.833,49.6667 224.833,54.3333 223.5,59C 218.845,59.4992 214.179,59.6658 209.5,59.5 Z"/></g>
<g><path style="opacity:1" fill="#dfdedc" d="M -0.5,44.5 C 3.70159,44.1832 7.70159,44.5166 11.5,45.5C 10.0991,48.7036 9.0991,52.0369 8.5,55.5C 6.39522,58.4083 5.39522,61.7417 5.5,65.5C 5.16667,65.5 4.83333,65.5 4.5,65.5C 4.5,63.5 4.5,61.5 4.5,59.5C 2.83333,59.5 1.16667,59.5 -0.5,59.5C -0.5,54.5 -0.5,49.5 -0.5,44.5 Z"/></g>
<g><path style="opacity:1" fill="#dfdede" d="M 147.5,33.5 C 149.298,36.8309 149.964,40.4975 149.5,44.5C 144.5,44.5 139.5,44.5 134.5,44.5C 134.5,49.5 134.5,54.5 134.5,59.5C 129.5,59.5 124.5,59.5 119.5,59.5C 119.307,55.4338 119.64,51.4338 120.5,47.5C 128.772,41.5297 137.772,36.863 147.5,33.5 Z"/></g>
<g><path style="opacity:1" fill="#dddddd" d="M 119.5,59.5 C 119.5,64.5 119.5,69.5 119.5,74.5C 114.5,74.5 109.5,74.5 104.5,74.5C 104.173,69.7863 104.507,65.1196 105.5,60.5C 110.1,59.5565 114.767,59.2232 119.5,59.5 Z"/></g>
<g><path style="opacity:1" fill="#dddddd" d="M 134.5,59.5 C 139.5,59.5 144.5,59.5 149.5,59.5C 149.5,64.5 149.5,69.5 149.5,74.5C 144.821,74.6658 140.155,74.4992 135.5,74C 134.531,69.2633 134.197,64.43 134.5,59.5 Z"/></g>
<g><path style="opacity:1" fill="#fefefe" d="M 149.5,59.5 C 154.5,59.5 159.5,59.5 164.5,59.5C 164.5,64.5 164.5,69.5 164.5,74.5C 159.5,74.5 154.5,74.5 149.5,74.5C 149.5,69.5 149.5,64.5 149.5,59.5 Z"/></g>
<g><path style="opacity:1" fill="#dddddd" d="M 164.5,59.5 C 169.5,59.5 174.5,59.5 179.5,59.5C 179.5,64.5 179.5,69.5 179.5,74.5C 174.5,74.5 169.5,74.5 164.5,74.5C 164.5,69.5 164.5,64.5 164.5,59.5 Z"/></g>
<g><path style="opacity:1" fill="#fefefe" d="M 179.5,59.5 C 184.5,59.5 189.5,59.5 194.5,59.5C 194.5,64.5 194.5,69.5 194.5,74.5C 189.5,74.5 184.5,74.5 179.5,74.5C 179.5,69.5 179.5,64.5 179.5,59.5 Z"/></g>
<g><path style="opacity:1" fill="#dddddd" d="M 194.5,59.5 C 199.5,59.5 204.5,59.5 209.5,59.5C 209.5,64.5 209.5,69.5 209.5,74.5C 204.5,74.5 199.5,74.5 194.5,74.5C 194.5,69.5 194.5,64.5 194.5,59.5 Z"/></g>
<g><path style="opacity:1" fill="#fefbf6" d="M 120.5,47.5 C 119.64,51.4338 119.307,55.4338 119.5,59.5C 114.767,59.2232 110.1,59.5565 105.5,60.5C 104.507,65.1196 104.173,69.7863 104.5,74.5C 109.5,74.5 114.5,74.5 119.5,74.5C 119.5,79.5 119.5,84.5 119.5,89.5C 114.5,89.5 109.5,89.5 104.5,89.5C 104.666,84.8215 104.499,80.1548 104,75.5C 99.3333,74.1667 94.6667,74.1667 90,75.5C 89.5008,80.1548 89.3342,84.8215 89.5,89.5C 85.774,89.1774 82.1073,89.5108 78.5,90.5C 77.7542,91.7362 77.4208,93.0695 77.5,94.5C 76.5,94.5 75.5,94.5 74.5,94.5C 74.2161,97.7766 74.5495,100.943 75.5,104C 80.1548,104.499 84.8215,104.666 89.5,104.5C 89.5,109.5 89.5,114.5 89.5,119.5C 84.5,119.5 79.5,119.5 74.5,119.5C 74.5,114.5 74.5,109.5 74.5,104.5C 72.2646,104.795 70.2646,104.461 68.5,103.5C 81.3165,80.6819 98.6498,62.0153 120.5,47.5 Z"/></g>
<g><path style="opacity:1" fill="#dcdddd" d="M 104.5,89.5 C 99.5,89.5 94.5,89.5 89.5,89.5C 89.3342,84.8215 89.5008,80.1548 90,75.5C 94.6667,74.1667 99.3333,74.1667 104,75.5C 104.499,80.1548 104.666,84.8215 104.5,89.5 Z"/></g>
<g><path style="opacity:1" fill="#dddddd" d="M 119.5,74.5 C 124.5,74.5 129.5,74.5 134.5,74.5C 134.5,79.5 134.5,84.5 134.5,89.5C 129.5,89.5 124.5,89.5 119.5,89.5C 119.5,84.5 119.5,79.5 119.5,74.5 Z"/></g>
<g><path style="opacity:1" fill="#fdfdfd" d="M 119.5,59.5 C 124.5,59.5 129.5,59.5 134.5,59.5C 134.197,64.43 134.531,69.2633 135.5,74C 140.155,74.4992 144.821,74.6658 149.5,74.5C 149.774,79.263 149.441,83.9296 148.5,88.5C 138.248,91.1274 128.581,95.1274 119.5,100.5C 119.5,96.8333 119.5,93.1667 119.5,89.5C 124.5,89.5 129.5,89.5 134.5,89.5C 134.5,84.5 134.5,79.5 134.5,74.5C 129.5,74.5 124.5,74.5 119.5,74.5C 119.5,69.5 119.5,64.5 119.5,59.5 Z"/></g>
<g><path style="opacity:1" fill="#dedcda" d="M 149.5,74.5 C 154.5,74.5 159.5,74.5 164.5,74.5C 164.5,77.8333 164.5,81.1667 164.5,84.5C 159.246,86.1468 153.913,87.4801 148.5,88.5C 149.441,83.9296 149.774,79.263 149.5,74.5 Z"/></g>
<g><path style="opacity:1" fill="#fdfdfc" d="M 164.5,74.5 C 169.5,74.5 174.5,74.5 179.5,74.5C 179.5,77.8333 179.5,81.1667 179.5,84.5C 174.5,84.5 169.5,84.5 164.5,84.5C 164.5,81.1667 164.5,77.8333 164.5,74.5 Z"/></g>
<g><path style="opacity:1" fill="#dddddd" d="M 179.5,74.5 C 184.5,74.5 189.5,74.5 194.5,74.5C 194.5,78.1667 194.5,81.8333 194.5,85.5C 193.5,85.5 192.5,85.5 191.5,85.5C 187.481,85.3542 183.481,85.0209 179.5,84.5C 179.5,81.1667 179.5,77.8333 179.5,74.5 Z"/></g>
<g><path style="opacity:1" fill="#fcfbf8" d="M 194.5,74.5 C 199.5,74.5 204.5,74.5 209.5,74.5C 209.5,79.5 209.5,84.5 209.5,89.5C 214.5,89.5 219.5,89.5 224.5,89.5C 224.5,94.5 224.5,99.5 224.5,104.5C 229.5,104.5 234.5,104.5 239.5,104.5C 239.5,109.5 239.5,114.5 239.5,119.5C 234.5,119.5 229.5,119.5 224.5,119.5C 224.5,124.5 224.5,129.5 224.5,134.5C 219.5,134.5 214.5,134.5 209.5,134.5C 209.5,139.5 209.5,144.5 209.5,149.5C 204.5,149.5 199.5,149.5 194.5,149.5C 194.5,144.833 194.5,140.167 194.5,135.5C 201.801,132.4 208.801,128.567 215.5,124C 218.166,121.855 220.166,119.355 221.5,116.5C 223.026,115.508 223.693,114.008 223.5,112C 223.693,109.992 223.026,108.492 221.5,107.5C 219.036,103.262 216.036,99.429 212.5,96C 205.687,91.9267 198.687,88.4267 191.5,85.5C 192.5,85.5 193.5,85.5 194.5,85.5C 194.5,81.8333 194.5,78.1667 194.5,74.5 Z"/></g>
<g><path style="opacity:1" fill="#dcdddc" d="M 209.5,74.5 C 214.43,74.1975 219.263,74.5308 224,75.5C 224.499,80.1548 224.666,84.8215 224.5,89.5C 219.5,89.5 214.5,89.5 209.5,89.5C 209.5,84.5 209.5,79.5 209.5,74.5 Z"/></g>
<g><path style="opacity:1" fill="#f6ecdc" d="M -0.5,59.5 C 1.16667,59.5 2.83333,59.5 4.5,59.5C 4.5,61.5 4.5,63.5 4.5,65.5C 3.52625,118.484 3.19292,171.484 3.5,224.5C 2.83333,174.665 2.16667,124.665 1.5,74.5C 0.833333,124.665 0.166666,174.665 -0.5,224.5C -0.5,169.5 -0.5,114.5 -0.5,59.5 Z"/></g>
<g><path style="opacity:1" fill="#ebf0f2" d="M 3.5,224.5 C 3.19845,227.059 3.53178,229.393 4.5,231.5C 6.47198,237.754 8.47198,244.087 10.5,250.5C 10.5,251.833 10.5,253.167 10.5,254.5C 6.83333,254.5 3.16667,254.5 -0.5,254.5C -0.5,244.5 -0.5,234.5 -0.5,224.5C 0.166666,174.665 0.833333,124.665 1.5,74.5C 2.16667,124.665 2.83333,174.665 3.5,224.5 Z"/></g>
<g><path style="opacity:1" fill="#dcdddd" d="M 89.5,89.5 C 89.5,94.5 89.5,99.5 89.5,104.5C 84.8215,104.666 80.1548,104.499 75.5,104C 74.5495,100.943 74.2161,97.7766 74.5,94.5C 75.5,94.5 76.5,94.5 77.5,94.5C 77.4208,93.0695 77.7542,91.7362 78.5,90.5C 82.1073,89.5108 85.774,89.1774 89.5,89.5 Z"/></g>
<g><path style="opacity:1" fill="#fefefd" d="M 89.5,89.5 C 94.5,89.5 99.5,89.5 104.5,89.5C 104.334,94.1785 104.501,98.8452 105,103.5C 107.381,104.435 109.881,104.768 112.5,104.5C 110.192,106.471 107.858,108.471 105.5,110.5C 104.539,108.735 104.205,106.735 104.5,104.5C 99.5,104.5 94.5,104.5 89.5,104.5C 89.5,99.5 89.5,94.5 89.5,89.5 Z"/></g>
<g><path style="opacity:1" fill="#dddddd" d="M 104.5,89.5 C 109.5,89.5 114.5,89.5 119.5,89.5C 119.5,93.1667 119.5,96.8333 119.5,100.5C 117.628,102.604 115.295,103.937 112.5,104.5C 109.881,104.768 107.381,104.435 105,103.5C 104.501,98.8452 104.334,94.1785 104.5,89.5 Z"/></g>
<g><path style="opacity:1" fill="#f97700" d="M 294.5,128.5 C 293.168,119.358 292.502,109.858 292.5,100C 292.833,90.5 293.167,81 293.5,71.5C 294.5,90.4883 294.833,109.488 294.5,128.5 Z"/></g>
<g><path style="opacity:1" fill="#f4b57b" d="M 221.5,107.5 C 223.026,108.492 223.693,109.992 223.5,112C 223.693,114.008 223.026,115.508 221.5,116.5C 222.833,113.5 222.833,110.5 221.5,107.5 Z"/></g>
<g><path style="opacity:1" fill="#dedbd8" d="M 68.5,103.5 C 70.2646,104.461 72.2646,104.795 74.5,104.5C 74.5,109.5 74.5,114.5 74.5,119.5C 70.5,119.5 66.5,119.5 62.5,119.5C 62.7373,118.209 62.404,117.209 61.5,116.5C 63.9818,112.18 66.3151,107.846 68.5,103.5 Z"/></g>
<g><path style="opacity:1" fill="#f3cba2" d="M 295.5,79.5 C 296.166,87.6598 296.5,95.9932 296.5,104.5C 296.498,113.194 295.831,121.528 294.5,129.5C 294.5,129.167 294.5,128.833 294.5,128.5C 295.496,112.342 295.83,96.0085 295.5,79.5 Z"/></g>
<g><path style="opacity:1" fill="#db7b22" d="M 4.5,65.5 C 4.83333,65.5 5.16667,65.5 5.5,65.5C 5.5,66.8333 5.5,68.1667 5.5,69.5C 4.52206,121.814 4.18873,174.148 4.5,226.5C 4.5,228.167 4.5,229.833 4.5,231.5C 3.53178,229.393 3.19845,227.059 3.5,224.5C 3.19292,171.484 3.52625,118.484 4.5,65.5 Z"/></g>
<g><path style="opacity:1" fill="#f87700" d="M 4.5,226.5 C 4.18873,174.148 4.52206,121.814 5.5,69.5C 6.31382,67.369 6.81382,65.0356 7,62.5C 7.33333,62.1667 7.66667,61.8333 8,61.5C 8.33008,64.866 7.99675,68.1994 7,71.5C 7.1633,123.51 6.32997,175.176 4.5,226.5 Z"/></g>
<g><path style="opacity:1" fill="#fdfcfa" d="M 61.5,116.5 C 62.404,117.209 62.7373,118.209 62.5,119.5C 66.5,119.5 70.5,119.5 74.5,119.5C 74.5,124.5 74.5,129.5 74.5,134.5C 77.1194,134.768 79.6194,134.435 82,133.5C 82.4643,134.094 82.631,134.761 82.5,135.5C 80.5687,138.988 79.0687,142.655 78,146.5C 74.5142,157.03 75.0142,167.364 79.5,177.5C 78.4479,179.256 76.7812,179.923 74.5,179.5C 74.5,174.5 74.5,169.5 74.5,164.5C 69.5,164.5 64.5,164.5 59.5,164.5C 59.5,159.5 59.5,154.5 59.5,149.5C 64.5,149.5 69.5,149.5 74.5,149.5C 74.6658,144.821 74.4992,140.155 74,135.5C 69.2633,134.531 64.43,134.197 59.5,134.5C 59.1773,130.048 59.1773,125.715 59.5,121.5C 59.8925,119.716 60.5592,118.05 61.5,116.5 Z"/></g>
<g><path style="opacity:1" fill="#dedddd" d="M 89.5,104.5 C 94.5,104.5 99.5,104.5 104.5,104.5C 104.205,106.735 104.539,108.735 105.5,110.5C 96.2311,117.381 88.5645,125.714 82.5,135.5C 82.631,134.761 82.4643,134.094 82,133.5C 79.6194,134.435 77.1194,134.768 74.5,134.5C 74.5,129.5 74.5,124.5 74.5,119.5C 79.5,119.5 84.5,119.5 89.5,119.5C 89.5,114.5 89.5,109.5 89.5,104.5 Z"/></g>
<g><path style="opacity:1" fill="#e2e0dd" d="M 236.5,57.5 C 237.315,58.4293 238.148,59.4293 239,60.5C 249.587,86.0405 248.754,111.04 236.5,135.5C 232.702,134.517 228.702,134.183 224.5,134.5C 224.5,129.5 224.5,124.5 224.5,119.5C 229.5,119.5 234.5,119.5 239.5,119.5C 239.5,114.5 239.5,109.5 239.5,104.5C 234.5,104.5 229.5,104.5 224.5,104.5C 224.5,99.5 224.5,94.5 224.5,89.5C 229.5,89.5 234.5,89.5 239.5,89.5C 239.5,84.5 239.5,79.5 239.5,74.5C 234.5,74.5 229.5,74.5 224.5,74.5C 224.5,69.5 224.5,64.5 224.5,59.5C 228.971,60.0894 232.971,59.4228 236.5,57.5 Z"/></g>
<g><path style="opacity:1" fill="#f8c588" d="M 128.5,127.5 C 128.131,123.232 127.131,119.232 125.5,115.5C 126.829,113.623 128.162,113.456 129.5,115C 128.596,119.111 128.263,123.278 128.5,127.5 Z"/></g>
<g><path style="opacity:1" fill="#ebc59d" d="M 119.5,119.5 C 117.906,122.764 115.573,125.431 112.5,127.5C 114.146,124.19 116.48,121.523 119.5,119.5 Z"/></g>
<g><path style="opacity:1" fill="#f7f5f2" d="M 125.5,115.5 C 127.131,119.232 128.131,123.232 128.5,127.5C 129.87,129.25 130.87,131.25 131.5,133.5C 127.702,134.483 123.702,134.817 119.5,134.5C 119.5,139.5 119.5,144.5 119.5,149.5C 115.833,149.5 112.167,149.5 108.5,149.5C 106.992,141.554 108.326,134.221 112.5,127.5C 115.573,125.431 117.906,122.764 119.5,119.5C 120.802,117.178 122.802,115.845 125.5,115.5 Z"/></g>
<g><path style="opacity:1" fill="#fdfcf8" d="M 59.5,149.5 C 56.5,149.5 53.5,149.5 50.5,149.5C 50.5,148.167 50.5,146.833 50.5,145.5C 51.0027,141.96 52.0027,138.627 53.5,135.5C 55.3388,134.248 57.1722,134.248 59,135.5C 59.4992,140.155 59.6658,144.821 59.5,149.5 Z"/></g>
<g><path style="opacity:1" fill="#dddcdb" d="M 59.5,121.5 C 59.1773,125.715 59.1773,130.048 59.5,134.5C 64.43,134.197 69.2633,134.531 74,135.5C 74.4992,140.155 74.6658,144.821 74.5,149.5C 69.5,149.5 64.5,149.5 59.5,149.5C 59.6658,144.821 59.4992,140.155 59,135.5C 57.1722,134.248 55.3388,134.248 53.5,135.5C 54.8958,130.445 56.8958,125.778 59.5,121.5 Z"/></g>
<g><path style="opacity:1" fill="#dcdddd" d="M 131.5,133.5 C 132.833,134.833 134.167,136.167 135.5,137.5C 134.517,141.298 134.183,145.298 134.5,149.5C 129.5,149.5 124.5,149.5 119.5,149.5C 119.5,144.5 119.5,139.5 119.5,134.5C 123.702,134.817 127.702,134.483 131.5,133.5 Z"/></g>
<g><path style="opacity:1" fill="#dddddd" d="M 224.5,134.5 C 224.5,139.5 224.5,144.5 224.5,149.5C 224.167,149.5 223.833,149.5 223.5,149.5C 218.833,149.5 214.167,149.5 209.5,149.5C 209.5,144.5 209.5,139.5 209.5,134.5C 214.5,134.5 219.5,134.5 224.5,134.5 Z"/></g>
<g><path style="opacity:1" fill="#fdfdf8" d="M 224.5,134.5 C 228.702,134.183 232.702,134.517 236.5,135.5C 233.447,140.911 229.447,145.578 224.5,149.5C 224.5,144.5 224.5,139.5 224.5,134.5 Z"/></g>
<g><path style="opacity:1" fill="#f2f2f0" d="M 299.5,44.5 C 299.5,109.5 299.5,174.5 299.5,239.5C 297.5,239.5 295.5,239.5 293.5,239.5C 293.586,235.143 293.92,230.81 294.5,226.5C 295.338,226.158 295.672,225.492 295.5,224.5C 296.176,199.961 296.842,175.294 297.5,150.5C 296.042,149.218 294.708,149.218 293.5,150.5C 293.5,150.833 293.5,151.167 293.5,151.5C 293.167,151.5 292.833,151.5 292.5,151.5C 288.507,156.16 284.174,160.493 279.5,164.5C 276.167,164.5 272.833,164.5 269.5,164.5C 269.5,160.167 269.5,155.833 269.5,151.5C 270.167,150.5 270.833,149.5 271.5,148.5C 274.167,147.833 275.833,146.167 276.5,143.5C 281.768,137.869 287.768,133.203 294.5,129.5C 295.831,121.528 296.498,113.194 296.5,104.5C 296.5,95.9932 296.166,87.6598 295.5,79.5C 295.691,74.1007 295.191,68.7674 294,63.5C 291.827,57.4564 289.66,51.4564 287.5,45.5C 291.298,44.5166 295.298,44.1832 299.5,44.5 Z"/></g>
<g><path style="opacity:1" fill="#fefdfc" d="M 135.5,137.5 C 138.193,138.552 140.86,139.552 143.5,140.5C 145.374,141.285 147.374,141.952 149.5,142.5C 149.5,144.833 149.5,147.167 149.5,149.5C 144.5,149.5 139.5,149.5 134.5,149.5C 134.183,145.298 134.517,141.298 135.5,137.5 Z"/></g>
<g><path style="opacity:1" fill="#e89645" d="M 143.5,140.5 C 150.153,141.054 156.82,141.388 163.5,141.5C 159.03,142.486 154.363,142.819 149.5,142.5C 147.374,141.952 145.374,141.285 143.5,140.5 Z"/></g>
<g><path style="opacity:1" fill="#e1dedc" d="M 175.5,140.5 C 172.124,142.082 168.458,142.749 164.5,142.5C 164.756,144.792 164.423,146.959 163.5,149C 158.845,149.499 154.179,149.666 149.5,149.5C 149.5,147.167 149.5,144.833 149.5,142.5C 154.363,142.819 159.03,142.486 163.5,141.5C 167.519,141.354 171.519,141.021 175.5,140.5 Z"/></g>
<g><path style="opacity:1" fill="#dedcdb" d="M 194.5,135.5 C 194.5,140.167 194.5,144.833 194.5,149.5C 189.5,149.5 184.5,149.5 179.5,149.5C 180.055,145.988 179.388,142.988 177.5,140.5C 182.894,138.261 188.561,136.594 194.5,135.5 Z"/></g>
<g><path style="opacity:1" fill="#eabb8d" d="M 276.5,143.5 C 275.833,146.167 274.167,147.833 271.5,148.5C 272.833,146.5 274.5,144.833 276.5,143.5 Z"/></g>
<g><path style="opacity:1" fill="#dedddb" d="M 108.5,149.5 C 112.167,149.5 115.833,149.5 119.5,149.5C 120.103,154.619 119.436,159.285 117.5,163.5C 112.509,160.201 109.509,155.534 108.5,149.5 Z"/></g>
<g><path style="opacity:1" fill="#dddddd" d="M 134.5,149.5 C 139.5,149.5 144.5,149.5 149.5,149.5C 149.5,154.5 149.5,159.5 149.5,164.5C 144.821,164.666 140.155,164.499 135.5,164C 134.531,159.263 134.197,154.43 134.5,149.5 Z"/></g>
<g><path style="opacity:1" fill="#fefefe" d="M 175.5,140.5 C 176.167,140.5 176.833,140.5 177.5,140.5C 179.388,142.988 180.055,145.988 179.5,149.5C 174.5,149.5 169.5,149.5 164.5,149.5C 164.5,154.5 164.5,159.5 164.5,164.5C 159.5,164.5 154.5,164.5 149.5,164.5C 149.5,159.5 149.5,154.5 149.5,149.5C 154.179,149.666 158.845,149.499 163.5,149C 164.423,146.959 164.756,144.792 164.5,142.5C 168.458,142.749 172.124,142.082 175.5,140.5 Z"/></g>
<g><path style="opacity:1" fill="#dddddd" d="M 179.5,149.5 C 179.5,154.5 179.5,159.5 179.5,164.5C 174.5,164.5 169.5,164.5 164.5,164.5C 164.5,159.5 164.5,154.5 164.5,149.5C 169.5,149.5 174.5,149.5 179.5,149.5 Z"/></g>
<g><path style="opacity:1" fill="#fefefe" d="M 179.5,149.5 C 184.5,149.5 189.5,149.5 194.5,149.5C 194.5,154.5 194.5,159.5 194.5,164.5C 189.5,164.5 184.5,164.5 179.5,164.5C 179.5,159.5 179.5,154.5 179.5,149.5 Z"/></g>
<g><path style="opacity:1" fill="#dedddd" d="M 194.5,149.5 C 199.5,149.5 204.5,149.5 209.5,149.5C 209.5,153.167 209.5,156.833 209.5,160.5C 199.991,165.086 190.324,169.419 180.5,173.5C 179.597,170.609 179.264,167.609 179.5,164.5C 184.5,164.5 189.5,164.5 194.5,164.5C 194.5,159.5 194.5,154.5 194.5,149.5 Z"/></g>
<g><path style="opacity:1" fill="#fdfbf7" d="M 209.5,149.5 C 214.167,149.5 218.833,149.5 223.5,149.5C 219.668,154.1 215.002,157.767 209.5,160.5C 209.5,156.833 209.5,153.167 209.5,149.5 Z"/></g>
<g><path style="opacity:1" fill="#dedddc" d="M 50.5,145.5 C 50.5,146.833 50.5,148.167 50.5,149.5C 53.5,149.5 56.5,149.5 59.5,149.5C 59.5,154.5 59.5,159.5 59.5,164.5C 55.5,164.5 51.5,164.5 47.5,164.5C 47.5,162.833 47.5,161.167 47.5,159.5C 47.5811,154.524 48.5811,149.857 50.5,145.5 Z"/></g>
<g><path style="opacity:1" fill="#fefefd" d="M 119.5,149.5 C 124.5,149.5 129.5,149.5 134.5,149.5C 134.197,154.43 134.531,159.263 135.5,164C 140.155,164.499 144.821,164.666 149.5,164.5C 149.5,169.5 149.5,174.5 149.5,179.5C 144.5,179.5 139.5,179.5 134.5,179.5C 134.5,174.5 134.5,169.5 134.5,164.5C 129.5,164.5 124.5,164.5 119.5,164.5C 119.5,169.5 119.5,174.5 119.5,179.5C 116.287,179.81 113.287,179.477 110.5,178.5C 112.059,173.496 114.726,169.163 118.5,165.5C 118.137,164.817 117.804,164.15 117.5,163.5C 119.436,159.285 120.103,154.619 119.5,149.5 Z"/></g>
<g><path style="opacity:1" fill="#f1cba2" d="M 293.5,150.5 C 294.708,149.218 296.042,149.218 297.5,150.5C 296.842,175.294 296.176,199.961 295.5,224.5C 296.157,199.477 295.49,174.811 293.5,150.5 Z"/></g>
<g><path style="opacity:1" fill="#da771c" d="M 293.5,151.5 C 293.5,151.167 293.5,150.833 293.5,150.5C 295.49,174.811 296.157,199.477 295.5,224.5C 295.672,225.492 295.338,226.158 294.5,226.5C 294.831,201.328 294.498,176.328 293.5,151.5 Z"/></g>
<g><path style="opacity:1" fill="#fb7700" d="M 292.5,151.5 C 292.833,151.5 293.167,151.5 293.5,151.5C 294.498,176.328 294.831,201.328 294.5,226.5C 292.509,201.856 291.843,176.856 292.5,151.5 Z"/></g>
<g><path style="opacity:1" fill="#ef7c03" d="M 8.5,55.5 C 9.37661,58.7521 10.0433,62.0854 10.5,65.5C 9.21953,92.7984 8.55287,120.132 8.5,147.5C 8.66667,172.833 8.83333,198.167 9,223.5C 9.41862,224.672 10.0853,225.672 11,226.5C 11.0146,206.893 11.348,187.226 12,167.5C 12.5,171.5 13,175.5 13.5,179.5C 13.4968,188.829 13.1635,198.162 12.5,207.5C 13.5,207.5 14.5,207.5 15.5,207.5C 15.5,204.833 15.5,202.167 15.5,199.5C 21.1667,199.5 26.8333,199.5 32.5,199.5C 32.2601,202.579 32.5934,205.579 33.5,208.5C 32.0499,209.85 31.3832,211.516 31.5,213.5C 32.552,213.649 33.552,213.483 34.5,213C 34.1667,212.667 33.8333,212.333 33.5,212C 36.5582,207.626 38.8915,207.793 40.5,212.5C 42.8762,213.817 44.5429,213.15 45.5,210.5C 44.9282,206.104 44.0948,201.77 43,197.5C 42.5017,200.817 42.335,204.15 42.5,207.5C 41.5,207.5 40.5,207.5 39.5,207.5C 41.4277,196.807 43.0944,186.141 44.5,175.5C 44.1228,184.727 44.7894,193.727 46.5,202.5C 46.448,204.903 46.7814,207.236 47.5,209.5C 47.5096,214.835 49.1763,219.501 52.5,223.5C 53.6422,226.38 54.6422,229.38 55.5,232.5C 57.2991,235.163 59.2991,237.496 61.5,239.5C 67.9921,250.326 76.9921,258.326 88.5,263.5C 97.8391,269.656 108.172,273.322 119.5,274.5C 124.29,275.725 129.29,276.392 134.5,276.5C 139.547,276.663 144.547,276.329 149.5,275.5C 160.305,274.549 170.638,271.882 180.5,267.5C 185.371,265.545 190.038,263.212 194.5,260.5C 196.657,258.588 198.991,256.921 201.5,255.5C 204.207,253.157 206.874,250.823 209.5,248.5C 213.456,246.212 216.789,243.212 219.5,239.5C 222.144,238.856 223.811,237.189 224.5,234.5C 227.5,231.167 230.5,227.833 233.5,224.5C 240.795,215.531 248.129,206.531 255.5,197.5C 255.557,196.391 255.89,195.391 256.5,194.5C 260.214,190.117 263.547,185.45 266.5,180.5C 267.974,179.564 268.974,178.23 269.5,176.5C 273.21,172.792 276.543,168.792 279.5,164.5C 284.174,160.493 288.507,156.16 292.5,151.5C 291.843,176.856 292.509,201.856 294.5,226.5C 293.92,230.81 293.586,235.143 293.5,239.5C 289.526,249.205 284.526,258.538 278.5,267.5C 271.143,275.187 263.143,282.187 254.5,288.5C 249.401,290.369 244.401,292.536 239.5,295C 233.962,296.241 228.629,297.741 223.5,299.5C 175.5,299.5 127.5,299.5 79.5,299.5C 47.9107,295.242 24.9107,278.908 10.5,250.5C 8.47198,244.087 6.47198,237.754 4.5,231.5C 4.5,229.833 4.5,228.167 4.5,226.5C 6.32997,175.176 7.1633,123.51 7,71.5C 7.99675,68.1994 8.33008,64.866 8,61.5C 7.66667,61.8333 7.33333,62.1667 7,62.5C 6.81382,65.0356 6.31382,67.369 5.5,69.5C 5.5,68.1667 5.5,66.8333 5.5,65.5C 5.39522,61.7417 6.39522,58.4083 8.5,55.5 Z"/></g>
<g><path style="opacity:1" fill="#fefefd" d="M 225.5,194.5 C 230.167,194.5 234.833,194.5 239.5,194.5C 239.5,199.5 239.5,204.5 239.5,209.5C 234.5,209.5 229.5,209.5 224.5,209.5C 224.818,204.968 224.485,200.634 223.5,196.5C 223.5,195.167 224.167,194.5 225.5,194.5 Z"/></g>
<g><path style="opacity:1" fill="#dddddd" d="M 119.5,194.5 C 124.5,194.5 129.5,194.5 134.5,194.5C 134.5,199.167 134.5,203.833 134.5,208.5C 129.595,209.445 124.595,209.779 119.5,209.5C 119.5,204.5 119.5,199.5 119.5,194.5 Z"/></g>
<g><path style="opacity:1" fill="#fdfdfc" d="M 108.5,194.5 C 112.167,194.5 115.833,194.5 119.5,194.5C 119.5,199.5 119.5,204.5 119.5,209.5C 116.5,209.5 113.5,209.5 110.5,209.5C 110.5,210.5 110.5,211.5 110.5,212.5C 109.463,211.07 108.796,209.403 108.5,207.5C 108.5,203.167 108.5,198.833 108.5,194.5 Z"/></g>
<g><path style="opacity:1" fill="#fbe7cc" d="M 108.5,183.5 C 108.5,187.167 108.5,190.833 108.5,194.5C 108.5,198.833 108.5,203.167 108.5,207.5C 105.884,199.493 105.884,191.493 108.5,183.5 Z"/></g>
<g><path style="opacity:1" fill="#fefefe" d="M 74.5,194.5 C 79.5,194.5 84.5,194.5 89.5,194.5C 89.5,199.5 89.5,204.5 89.5,209.5C 84.5,209.5 79.5,209.5 74.5,209.5C 74.5,204.5 74.5,199.5 74.5,194.5 Z"/></g>
<g><path style="opacity:1" fill="#dddddd" d="M 59.5,194.5 C 64.5,194.5 69.5,194.5 74.5,194.5C 74.5,199.5 74.5,204.5 74.5,209.5C 69.5,209.5 64.5,209.5 59.5,209.5C 59.5,204.5 59.5,199.5 59.5,194.5 Z"/></g>
<g><path style="opacity:1" fill="#fefefd" d="M 46.5,194.5 C 50.8333,194.5 55.1667,194.5 59.5,194.5C 59.5,199.5 59.5,204.5 59.5,209.5C 55.5,209.5 51.5,209.5 47.5,209.5C 46.7814,207.236 46.448,204.903 46.5,202.5C 46.5,199.833 46.5,197.167 46.5,194.5 Z"/></g>
<g><path style="opacity:1" fill="#e0dbd8" d="M 238.5,183.5 C 239.482,186.962 239.815,190.629 239.5,194.5C 234.833,194.5 230.167,194.5 225.5,194.5C 229.534,190.464 233.868,186.798 238.5,183.5 Z"/></g>
<g><path style="opacity:1" fill="#f6e1c7" d="M 47.5,159.5 C 47.5,161.167 47.5,162.833 47.5,164.5C 46.5128,169.305 46.1795,174.305 46.5,179.5C 46.5,184.5 46.5,189.5 46.5,194.5C 46.5,197.167 46.5,199.833 46.5,202.5C 44.7894,193.727 44.1228,184.727 44.5,175.5C 44.6943,169.88 45.6943,164.547 47.5,159.5 Z"/></g>
<g><path style="opacity:1" fill="#dedddd" d="M 254.5,179.5 C 258.702,179.183 262.702,179.517 266.5,180.5C 263.547,185.45 260.214,190.117 256.5,194.5C 254.64,189.807 253.974,184.807 254.5,179.5 Z"/></g>
<g><path style="opacity:1" fill="#fefefd" d="M 254.5,179.5 C 253.974,184.807 254.64,189.807 256.5,194.5C 255.89,195.391 255.557,196.391 255.5,197.5C 254.596,196.791 254.263,195.791 254.5,194.5C 249.5,194.5 244.5,194.5 239.5,194.5C 239.815,190.629 239.482,186.962 238.5,183.5C 238.833,182.833 239.167,182.167 239.5,181.5C 244.321,179.865 249.321,179.198 254.5,179.5 Z"/></g>
<g><path style="opacity:1" fill="#dddcdc" d="M 134.5,179.5 C 139.5,179.5 144.5,179.5 149.5,179.5C 149.5,183.5 149.5,187.5 149.5,191.5C 148.5,193.167 147.167,194.5 145.5,195.5C 142.103,194.802 138.603,194.135 135,193.5C 134.501,188.845 134.334,184.179 134.5,179.5 Z"/></g>
<g><path style="opacity:1" fill="#fefefd" d="M 119.5,179.5 C 124.5,179.5 129.5,179.5 134.5,179.5C 134.334,184.179 134.501,188.845 135,193.5C 138.603,194.135 142.103,194.802 145.5,195.5C 141.487,199.515 137.821,203.848 134.5,208.5C 134.5,203.833 134.5,199.167 134.5,194.5C 129.5,194.5 124.5,194.5 119.5,194.5C 119.5,189.5 119.5,184.5 119.5,179.5 Z"/></g>
<g><path style="opacity:1" fill="#ddddde" d="M 110.5,178.5 C 113.287,179.477 116.287,179.81 119.5,179.5C 119.5,184.5 119.5,189.5 119.5,194.5C 115.833,194.5 112.167,194.5 108.5,194.5C 108.5,190.833 108.5,187.167 108.5,183.5C 109.167,181.833 109.833,180.167 110.5,178.5 Z"/></g>
<g><path style="opacity:1" fill="#dfdddb" d="M 79.5,177.5 C 82.2371,181.474 85.0704,185.474 88,189.5C 90.6277,191.126 92.961,193.126 95,195.5C 95.4992,200.155 95.6658,204.821 95.5,209.5C 93.5,209.5 91.5,209.5 89.5,209.5C 89.5,204.5 89.5,199.5 89.5,194.5C 84.5,194.5 79.5,194.5 74.5,194.5C 74.5,189.5 74.5,184.5 74.5,179.5C 76.7812,179.923 78.4479,179.256 79.5,177.5 Z"/></g>
<g><path style="opacity:1" fill="#fefefe" d="M 59.5,179.5 C 64.5,179.5 69.5,179.5 74.5,179.5C 74.5,184.5 74.5,189.5 74.5,194.5C 69.5,194.5 64.5,194.5 59.5,194.5C 59.5,189.5 59.5,184.5 59.5,179.5 Z"/></g>
<g><path style="opacity:1" fill="#dcddde" d="M 46.5,179.5 C 50.8333,179.5 55.1667,179.5 59.5,179.5C 59.5,184.5 59.5,189.5 59.5,194.5C 55.1667,194.5 50.8333,194.5 46.5,194.5C 46.5,189.5 46.5,184.5 46.5,179.5 Z"/></g>
<g><path style="opacity:1" fill="#e1dfdc" d="M 255.5,166.5 C 254.564,170.735 254.231,175.069 254.5,179.5C 249.321,179.198 244.321,179.865 239.5,181.5C 241.214,178.787 243.547,176.787 246.5,175.5C 249.573,173.431 251.906,170.764 253.5,167.5C 253.842,166.662 254.508,166.328 255.5,166.5 Z"/></g>
<g><path style="opacity:1" fill="#edbf96" d="M 253.5,167.5 C 251.906,170.764 249.573,173.431 246.5,175.5C 248.094,172.236 250.427,169.569 253.5,167.5 Z"/></g>
<g><path style="opacity:1" fill="#e0dcdb" d="M 269.5,164.5 C 272.833,164.5 276.167,164.5 279.5,164.5C 276.543,168.792 273.21,172.792 269.5,176.5C 269.5,172.5 269.5,168.5 269.5,164.5 Z"/></g>
<g><path style="opacity:1" fill="#dddddc" d="M 59.5,164.5 C 64.5,164.5 69.5,164.5 74.5,164.5C 74.5,169.5 74.5,174.5 74.5,179.5C 69.5,179.5 64.5,179.5 59.5,179.5C 59.5,174.5 59.5,169.5 59.5,164.5 Z"/></g>
<g><path style="opacity:1" fill="#fefefd" d="M 269.5,164.5 C 269.5,168.5 269.5,172.5 269.5,176.5C 268.974,178.23 267.974,179.564 266.5,180.5C 262.702,179.517 258.702,179.183 254.5,179.5C 254.231,175.069 254.564,170.735 255.5,166.5C 255.5,166.167 255.5,165.833 255.5,165.5C 260.103,164.617 264.77,164.283 269.5,164.5 Z"/></g>
<g><path style="opacity:1" fill="#fdfdfc" d="M 164.5,164.5 C 169.5,164.5 174.5,164.5 179.5,164.5C 179.264,167.609 179.597,170.609 180.5,173.5C 169.712,178.727 159.379,184.727 149.5,191.5C 149.5,187.5 149.5,183.5 149.5,179.5C 154.5,179.5 159.5,179.5 164.5,179.5C 164.5,174.5 164.5,169.5 164.5,164.5 Z"/></g>
<g><path style="opacity:1" fill="#dddddd" d="M 149.5,164.5 C 154.5,164.5 159.5,164.5 164.5,164.5C 164.5,169.5 164.5,174.5 164.5,179.5C 159.5,179.5 154.5,179.5 149.5,179.5C 149.5,174.5 149.5,169.5 149.5,164.5 Z"/></g>
<g><path style="opacity:1" fill="#dddddd" d="M 134.5,179.5 C 129.5,179.5 124.5,179.5 119.5,179.5C 119.5,174.5 119.5,169.5 119.5,164.5C 124.5,164.5 129.5,164.5 134.5,164.5C 134.5,169.5 134.5,174.5 134.5,179.5 Z"/></g>
<g><path style="opacity:1" fill="#fefefe" d="M 47.5,164.5 C 51.5,164.5 55.5,164.5 59.5,164.5C 59.5,169.5 59.5,174.5 59.5,179.5C 55.1667,179.5 50.8333,179.5 46.5,179.5C 46.1795,174.305 46.5128,169.305 47.5,164.5 Z"/></g>
<g><path style="opacity:1" fill="#e0dbd6" d="M 269.5,151.5 C 269.5,155.833 269.5,160.167 269.5,164.5C 264.77,164.283 260.103,164.617 255.5,165.5C 259.908,160.425 264.575,155.758 269.5,151.5 Z"/></g>
<g><path style="opacity:1" fill="#fefdfb" d="M 59.5,209.5 C 64.5,209.5 69.5,209.5 74.5,209.5C 74.6658,214.179 74.4992,218.845 74,223.5C 69.2633,224.469 64.43,224.803 59.5,224.5C 59.198,229.679 59.8647,234.679 61.5,239.5C 59.2991,237.496 57.2991,235.163 55.5,232.5C 54.6422,229.38 53.6422,226.38 52.5,223.5C 54.6702,224.768 56.8368,224.768 59,223.5C 59.4992,218.845 59.6658,214.179 59.5,209.5 Z"/></g>
<g><path style="opacity:1" fill="#fefcf9" d="M 89.5,209.5 C 91.5,209.5 93.5,209.5 95.5,209.5C 97.6744,212.515 99.3411,215.849 100.5,219.5C 100.286,221.144 100.62,222.644 101.5,224C 97.5138,224.499 93.5138,224.666 89.5,224.5C 89.5,219.5 89.5,214.5 89.5,209.5 Z"/></g>
<g><path style="opacity:1" fill="#fefcf8" d="M 134.5,208.5 C 132.477,213.87 130.477,219.203 128.5,224.5C 125.552,224.223 122.719,224.556 120,225.5C 119.501,220.177 119.334,214.844 119.5,209.5C 124.595,209.779 129.595,209.445 134.5,208.5 Z"/></g>
<g><path style="opacity:1" fill="#fefefe" d="M 224.5,209.5 C 224.5,214.5 224.5,219.5 224.5,224.5C 219.5,224.5 214.5,224.5 209.5,224.5C 209.5,219.5 209.5,214.5 209.5,209.5C 214.5,209.5 219.5,209.5 224.5,209.5 Z"/></g>
<g><path style="opacity:1" fill="#dfdede" d="M 239.5,194.5 C 244.5,194.5 249.5,194.5 254.5,194.5C 254.263,195.791 254.596,196.791 255.5,197.5C 248.129,206.531 240.795,215.531 233.5,224.5C 230.5,224.5 227.5,224.5 224.5,224.5C 224.5,219.5 224.5,214.5 224.5,209.5C 229.5,209.5 234.5,209.5 239.5,209.5C 239.5,204.5 239.5,199.5 239.5,194.5 Z"/></g>
<g><path style="opacity:1" fill="#dedad7" d="M 47.5,209.5 C 51.5,209.5 55.5,209.5 59.5,209.5C 59.6658,214.179 59.4992,218.845 59,223.5C 56.8368,224.768 54.6702,224.768 52.5,223.5C 49.1763,219.501 47.5096,214.835 47.5,209.5 Z"/></g>
<g><path style="opacity:1" fill="#dededd" d="M 223.5,196.5 C 224.485,200.634 224.818,204.968 224.5,209.5C 219.5,209.5 214.5,209.5 209.5,209.5C 209.5,214.5 209.5,219.5 209.5,224.5C 204.5,224.5 199.5,224.5 194.5,224.5C 194.5,229.5 194.5,234.5 194.5,239.5C 189.5,239.5 184.5,239.5 179.5,239.5C 179.5,234.5 179.5,229.5 179.5,224.5C 184.179,224.666 188.845,224.499 193.5,224C 193.958,219.959 194.958,216.126 196.5,212.5C 206.023,207.911 215.023,202.578 223.5,196.5 Z"/></g>
<g><path style="opacity:1" fill="#e0dcd7" d="M 119.5,209.5 C 119.334,214.844 119.501,220.177 120,225.5C 122.719,224.556 125.552,224.223 128.5,224.5C 128.5,226.833 128.5,229.167 128.5,231.5C 127.127,231.657 125.793,231.49 124.5,231C 120.003,226.868 115.836,222.368 112,217.5C 111.648,215.753 111.148,214.086 110.5,212.5C 110.5,211.5 110.5,210.5 110.5,209.5C 113.5,209.5 116.5,209.5 119.5,209.5 Z"/></g>
<g><path style="opacity:1" fill="#e1dbd9" d="M 151.5,217.5 C 150.127,217.343 148.793,217.51 147.5,218C 149.25,219.754 149.917,221.921 149.5,224.5C 146.615,224.806 143.948,224.473 141.5,223.5C 141.204,215.41 144.537,213.41 151.5,217.5 Z"/></g>
<g><path style="opacity:1" fill="#fefefe" d="M 89.5,224.5 C 89.5,229.5 89.5,234.5 89.5,239.5C 84.5,239.5 79.5,239.5 74.5,239.5C 74.5,234.5 74.5,229.5 74.5,224.5C 79.5,224.5 84.5,224.5 89.5,224.5 Z"/></g>
<g><path style="opacity:1" fill="#fdfefd" d="M 140.5,223.5 C 140.833,223.5 141.167,223.5 141.5,223.5C 143.948,224.473 146.615,224.806 149.5,224.5C 149.5,229.5 149.5,234.5 149.5,239.5C 145.833,239.5 142.167,239.5 138.5,239.5C 138.338,237.473 138.505,235.473 139,233.5C 139.92,233.07 140.753,232.736 141.5,232.5C 140.593,229.579 140.26,226.579 140.5,223.5 Z"/></g>
<g><path style="opacity:1" fill="#fefdfa" d="M 196.5,212.5 C 194.958,216.126 193.958,219.959 193.5,224C 188.845,224.499 184.179,224.666 179.5,224.5C 179.5,229.5 179.5,234.5 179.5,239.5C 174.5,239.5 169.5,239.5 164.5,239.5C 164.5,234.5 164.5,229.5 164.5,224.5C 159.5,224.5 154.5,224.5 149.5,224.5C 149.917,221.921 149.25,219.754 147.5,218C 148.793,217.51 150.127,217.343 151.5,217.5C 154.167,217.833 156.833,218.167 159.5,218.5C 160.919,219.451 162.585,219.784 164.5,219.5C 164.286,221.144 164.62,222.644 165.5,224C 169.833,224.667 174.167,224.667 178.5,224C 179.406,222.301 179.739,220.467 179.5,218.5C 178.167,218.5 176.833,218.5 175.5,218.5C 182.534,216.988 189.534,214.988 196.5,212.5 Z"/></g>
<g><path style="opacity:1" fill="#dedad6" d="M 159.5,218.5 C 164.833,218.5 170.167,218.5 175.5,218.5C 176.833,218.5 178.167,218.5 179.5,218.5C 179.739,220.467 179.406,222.301 178.5,224C 174.167,224.667 169.833,224.667 165.5,224C 164.62,222.644 164.286,221.144 164.5,219.5C 162.585,219.784 160.919,219.451 159.5,218.5 Z"/></g>
<g><path style="opacity:1" fill="#fefefe" d="M 209.5,224.5 C 209.5,229.5 209.5,234.5 209.5,239.5C 204.5,239.5 199.5,239.5 194.5,239.5C 194.5,234.5 194.5,229.5 194.5,224.5C 199.5,224.5 204.5,224.5 209.5,224.5 Z"/></g>
<g><path style="opacity:1" fill="#fdfbf4" d="M 224.5,224.5 C 227.5,224.5 230.5,224.5 233.5,224.5C 230.5,227.833 227.5,231.167 224.5,234.5C 224.5,231.167 224.5,227.833 224.5,224.5 Z"/></g>
<g><path style="opacity:1" fill="#dddddd" d="M 74.5,209.5 C 79.5,209.5 84.5,209.5 89.5,209.5C 89.5,214.5 89.5,219.5 89.5,224.5C 84.5,224.5 79.5,224.5 74.5,224.5C 74.5,229.5 74.5,234.5 74.5,239.5C 70.1667,239.5 65.8333,239.5 61.5,239.5C 59.8647,234.679 59.198,229.679 59.5,224.5C 64.43,224.803 69.2633,224.469 74,223.5C 74.4992,218.845 74.6658,214.179 74.5,209.5 Z"/></g>
<g><path style="opacity:1" fill="#dddcdc" d="M 100.5,219.5 C 102.153,222.131 103.819,224.797 105.5,227.5C 104.517,231.298 104.183,235.298 104.5,239.5C 99.5,239.5 94.5,239.5 89.5,239.5C 89.5,234.5 89.5,229.5 89.5,224.5C 93.5138,224.666 97.5138,224.499 101.5,224C 100.62,222.644 100.286,221.144 100.5,219.5 Z"/></g>
<g><path style="opacity:1" fill="#dddddd" d="M 149.5,224.5 C 154.5,224.5 159.5,224.5 164.5,224.5C 164.5,229.5 164.5,234.5 164.5,239.5C 159.5,239.5 154.5,239.5 149.5,239.5C 149.5,234.5 149.5,229.5 149.5,224.5 Z"/></g>
<g><path style="opacity:1" fill="#dddcdc" d="M 209.5,224.5 C 214.5,224.5 219.5,224.5 224.5,224.5C 224.5,227.833 224.5,231.167 224.5,234.5C 223.811,237.189 222.144,238.856 219.5,239.5C 216.167,239.5 212.833,239.5 209.5,239.5C 209.5,234.5 209.5,229.5 209.5,224.5 Z"/></g>
<g><path style="opacity:1" fill="#fdfcf8" d="M 105.5,227.5 C 108.798,231.8 112.465,235.8 116.5,239.5C 112.5,239.5 108.5,239.5 104.5,239.5C 104.183,235.298 104.517,231.298 105.5,227.5 Z"/></g>
<g><path style="opacity:1" fill="#fdfbf5" d="M 61.5,239.5 C 65.8333,239.5 70.1667,239.5 74.5,239.5C 74.3342,244.179 74.5008,248.845 75,253.5C 79.7367,254.469 84.57,254.803 89.5,254.5C 89.81,257.713 89.4767,260.713 88.5,263.5C 76.9921,258.326 67.9921,250.326 61.5,239.5 Z"/></g>
<g><path style="opacity:1" fill="#dddddd" d="M 74.5,239.5 C 79.5,239.5 84.5,239.5 89.5,239.5C 89.5,244.5 89.5,249.5 89.5,254.5C 84.57,254.803 79.7367,254.469 75,253.5C 74.5008,248.845 74.3342,244.179 74.5,239.5 Z"/></g>
<g><path style="opacity:1" fill="#fefefe" d="M 89.5,239.5 C 94.5,239.5 99.5,239.5 104.5,239.5C 104.5,244.5 104.5,249.5 104.5,254.5C 99.5,254.5 94.5,254.5 89.5,254.5C 89.5,249.5 89.5,244.5 89.5,239.5 Z"/></g>
<g><path style="opacity:1" fill="#dfdedc" d="M 140.5,223.5 C 140.26,226.579 140.593,229.579 141.5,232.5C 140.753,232.736 139.92,233.07 139,233.5C 138.505,235.473 138.338,237.473 138.5,239.5C 142.167,239.5 145.833,239.5 149.5,239.5C 149.5,244.5 149.5,249.5 149.5,254.5C 144.5,254.5 139.5,254.5 134.5,254.5C 134.5,251.833 134.5,249.167 134.5,246.5C 135.5,246.5 136.5,246.5 137.5,246.5C 137.5,242.833 137.5,239.167 137.5,235.5C 138.132,231.298 139.132,227.298 140.5,223.5 Z"/></g>
<g><path style="opacity:1" fill="#dddddd" d="M 164.5,239.5 C 169.5,239.5 174.5,239.5 179.5,239.5C 179.5,244.5 179.5,249.5 179.5,254.5C 174.5,254.5 169.5,254.5 164.5,254.5C 164.5,249.5 164.5,244.5 164.5,239.5 Z"/></g>
<g><path style="opacity:1" fill="#fefefd" d="M 179.5,239.5 C 184.5,239.5 189.5,239.5 194.5,239.5C 194.5,244.5 194.5,249.5 194.5,254.5C 197.059,254.198 199.393,254.532 201.5,255.5C 198.991,256.921 196.657,258.588 194.5,260.5C 194.739,258.533 194.406,256.699 193.5,255C 188.845,254.501 184.179,254.334 179.5,254.5C 179.5,249.5 179.5,244.5 179.5,239.5 Z"/></g>
<g><path style="opacity:1" fill="#dddddd" d="M 194.5,239.5 C 199.5,239.5 204.5,239.5 209.5,239.5C 209.5,242.5 209.5,245.5 209.5,248.5C 206.874,250.823 204.207,253.157 201.5,255.5C 199.393,254.532 197.059,254.198 194.5,254.5C 194.5,249.5 194.5,244.5 194.5,239.5 Z"/></g>
<g><path style="opacity:1" fill="#fcfcf6" d="M 209.5,239.5 C 212.833,239.5 216.167,239.5 219.5,239.5C 216.789,243.212 213.456,246.212 209.5,248.5C 209.5,245.5 209.5,242.5 209.5,239.5 Z"/></g>
<g><path style="opacity:1" fill="#fdfcfa" d="M 118.5,239.5 C 122.425,243.127 127.092,245.127 132.5,245.5C 132.842,246.338 133.508,246.672 134.5,246.5C 134.5,249.167 134.5,251.833 134.5,254.5C 129.5,254.5 124.5,254.5 119.5,254.5C 119.726,249.438 119.392,244.438 118.5,239.5 Z"/></g>
<g><path style="opacity:1" fill="#e99c54" d="M 137.5,235.5 C 137.5,239.167 137.5,242.833 137.5,246.5C 136.5,246.5 135.5,246.5 134.5,246.5C 133.508,246.672 132.842,246.338 132.5,245.5C 133.5,245.5 134.5,245.5 135.5,245.5C 135.322,241.878 135.989,238.544 137.5,235.5 Z"/></g>
<g><path style="opacity:1" fill="#dddddd" d="M 104.5,239.5 C 108.5,239.5 112.5,239.5 116.5,239.5C 117.167,239.5 117.833,239.5 118.5,239.5C 119.392,244.438 119.726,249.438 119.5,254.5C 114.5,254.5 109.5,254.5 104.5,254.5C 104.5,249.5 104.5,244.5 104.5,239.5 Z"/></g>
<g><path style="opacity:1" fill="#dfdddb" d="M 293.5,239.5 C 295.5,239.5 297.5,239.5 299.5,239.5C 299.5,244.5 299.5,249.5 299.5,254.5C 295.486,254.334 291.486,254.501 287.5,255C 285.035,259.077 283.869,263.577 284,268.5C 281.661,270.078 279.828,269.745 278.5,267.5C 284.526,258.538 289.526,249.205 293.5,239.5 Z"/></g>
<g><path style="opacity:1" fill="#dedddd" d="M 89.5,254.5 C 94.5,254.5 99.5,254.5 104.5,254.5C 103.935,259.322 104.601,263.822 106.5,268C 106.167,268.333 105.833,268.667 105.5,269C 110.155,269.499 114.821,269.666 119.5,269.5C 119.5,271.167 119.5,272.833 119.5,274.5C 108.172,273.322 97.8391,269.656 88.5,263.5C 89.4767,260.713 89.81,257.713 89.5,254.5 Z"/></g>
<g><path style="opacity:1" fill="#fefefe" d="M 104.5,254.5 C 109.5,254.5 114.5,254.5 119.5,254.5C 119.5,259.5 119.5,264.5 119.5,269.5C 114.821,269.666 110.155,269.499 105.5,269C 105.833,268.667 106.167,268.333 106.5,268C 104.601,263.822 103.935,259.322 104.5,254.5 Z"/></g>
<g><path style="opacity:1" fill="#dddddd" d="M 119.5,254.5 C 124.5,254.5 129.5,254.5 134.5,254.5C 134.5,259.5 134.5,264.5 134.5,269.5C 129.5,269.5 124.5,269.5 119.5,269.5C 119.5,264.5 119.5,259.5 119.5,254.5 Z"/></g>
<g><path style="opacity:1" fill="#fefefe" d="M 134.5,254.5 C 139.5,254.5 144.5,254.5 149.5,254.5C 149.5,259.5 149.5,264.5 149.5,269.5C 144.5,269.5 139.5,269.5 134.5,269.5C 134.5,264.5 134.5,259.5 134.5,254.5 Z"/></g>
<g><path style="opacity:1" fill="#dddddd" d="M 149.5,254.5 C 154.179,254.334 158.845,254.501 163.5,255C 164.469,259.737 164.803,264.57 164.5,269.5C 159.5,269.5 154.5,269.5 149.5,269.5C 149.5,264.5 149.5,259.5 149.5,254.5 Z"/></g>
<g><path style="opacity:1" fill="#fdfdfd" d="M 149.5,239.5 C 154.5,239.5 159.5,239.5 164.5,239.5C 164.5,244.5 164.5,249.5 164.5,254.5C 169.5,254.5 174.5,254.5 179.5,254.5C 179.231,258.931 179.564,263.265 180.5,267.5C 170.638,271.882 160.305,274.549 149.5,275.5C 149.5,273.5 149.5,271.5 149.5,269.5C 154.5,269.5 159.5,269.5 164.5,269.5C 164.803,264.57 164.469,259.737 163.5,255C 158.845,254.501 154.179,254.334 149.5,254.5C 149.5,249.5 149.5,244.5 149.5,239.5 Z"/></g>
<g><path style="opacity:1" fill="#dddddb" d="M 179.5,254.5 C 184.179,254.334 188.845,254.501 193.5,255C 194.406,256.699 194.739,258.533 194.5,260.5C 190.038,263.212 185.371,265.545 180.5,267.5C 179.564,263.265 179.231,258.931 179.5,254.5 Z"/></g>
<g><path style="opacity:1" fill="#fdfcf8" d="M 119.5,269.5 C 124.5,269.5 129.5,269.5 134.5,269.5C 134.5,271.833 134.5,274.167 134.5,276.5C 129.29,276.392 124.29,275.725 119.5,274.5C 119.5,272.833 119.5,271.167 119.5,269.5 Z"/></g>
<g><path style="opacity:1" fill="#dddede" d="M 134.5,269.5 C 139.5,269.5 144.5,269.5 149.5,269.5C 149.5,271.5 149.5,273.5 149.5,275.5C 144.547,276.329 139.547,276.663 134.5,276.5C 134.5,274.167 134.5,271.833 134.5,269.5 Z"/></g>
<g><path style="opacity:1" fill="#fcfbf8" d="M 299.5,254.5 C 299.5,259.5 299.5,264.5 299.5,269.5C 294.5,269.5 289.5,269.5 284.5,269.5C 284.5,274.5 284.5,279.5 284.5,284.5C 279.5,284.5 274.5,284.5 269.5,284.5C 269.5,289.5 269.5,294.5 269.5,299.5C 264.5,299.5 259.5,299.5 254.5,299.5C 254.5,295.833 254.5,292.167 254.5,288.5C 263.143,282.187 271.143,275.187 278.5,267.5C 279.828,269.745 281.661,270.078 284,268.5C 283.869,263.577 285.035,259.077 287.5,255C 291.486,254.501 295.486,254.334 299.5,254.5 Z"/></g>
<g><path style="opacity:1" fill="#dddddd" d="M 299.5,269.5 C 299.5,274.5 299.5,279.5 299.5,284.5C 294.5,284.5 289.5,284.5 284.5,284.5C 284.5,279.5 284.5,274.5 284.5,269.5C 289.5,269.5 294.5,269.5 299.5,269.5 Z"/></g>
<g><path style="opacity:1" fill="#dddddd" d="M -0.5,284.5 C 4.5,284.5 9.5,284.5 14.5,284.5C 14.5,289.5 14.5,294.5 14.5,299.5C 9.5,299.5 4.5,299.5 -0.5,299.5C -0.5,294.5 -0.5,289.5 -0.5,284.5 Z"/></g>
<g><path style="opacity:1" fill="#fefefe" d="M -0.5,269.5 C 4.5,269.5 9.5,269.5 14.5,269.5C 14.3342,274.179 14.5008,278.845 15,283.5C 19.7367,284.469 24.57,284.803 29.5,284.5C 29.5,289.5 29.5,294.5 29.5,299.5C 24.5,299.5 19.5,299.5 14.5,299.5C 14.5,294.5 14.5,289.5 14.5,284.5C 9.5,284.5 4.5,284.5 -0.5,284.5C -0.5,279.5 -0.5,274.5 -0.5,269.5 Z"/></g>
<g><path style="opacity:1" fill="#dddddd" d="M 284.5,284.5 C 284.5,289.5 284.5,294.5 284.5,299.5C 279.5,299.5 274.5,299.5 269.5,299.5C 269.5,294.5 269.5,289.5 269.5,284.5C 274.5,284.5 279.5,284.5 284.5,284.5 Z"/></g>
<g><path style="opacity:1" fill="#fefefe" d="M 284.5,284.5 C 289.5,284.5 294.5,284.5 299.5,284.5C 299.5,289.5 299.5,294.5 299.5,299.5C 294.5,299.5 289.5,299.5 284.5,299.5C 284.5,294.5 284.5,289.5 284.5,284.5 Z"/></g>
<g><path style="opacity:1" fill="#e4e3e1" d="M 10.5,250.5 C 24.9107,278.908 47.9107,295.242 79.5,299.5C 62.8333,299.5 46.1667,299.5 29.5,299.5C 29.5,294.5 29.5,289.5 29.5,284.5C 24.57,284.803 19.7367,284.469 15,283.5C 14.5008,278.845 14.3342,274.179 14.5,269.5C 9.5,269.5 4.5,269.5 -0.5,269.5C -0.5,264.5 -0.5,259.5 -0.5,254.5C 3.16667,254.5 6.83333,254.5 10.5,254.5C 10.5,253.167 10.5,251.833 10.5,250.5 Z"/></g>
<g><path style="opacity:1" fill="#e4e1dc" d="M 254.5,288.5 C 254.5,292.167 254.5,295.833 254.5,299.5C 244.167,299.5 233.833,299.5 223.5,299.5C 228.629,297.741 233.962,296.241 239.5,295C 244.401,292.536 249.401,290.369 254.5,288.5 Z"/></g>
</svg>
